<?xml version="1.0" encoding="utf-8"?>
<!-- Generator: Adobe Illustrator 24.2.3, SVG Export Plug-In . SVG Version: 6.00 Build 0)  -->
<svg version="1.1" id="Layer_1" xmlns="http://www.w3.org/2000/svg" xmlns:xlink="http://www.w3.org/1999/xlink" x="0px" y="0px"
	 viewBox="0 0 650 650" style="enable-background:new 0 0 650 650;" xml:space="preserve">
<style type="text/css">
	.st0{fill:url(#SVGID_1_);}
	.st1{fill:url(#SVGID_2_);}
	.st2{fill:none;stroke:url(#SVGID_3_);stroke-width:0.93;stroke-miterlimit:10;}
	.st3{fill:url(#SVGID_4_);}
	.st4{fill:none;stroke:url(#SVGID_5_);stroke-width:2.67;stroke-miterlimit:10;}
	.st5{fill:url(#SVGID_6_);}
	.st6{fill:url(#SVGID_7_);}
	.st7{fill:url(#SVGID_8_);}
	.st8{fill:url(#SVGID_9_);}
	.st9{fill:url(#SVGID_10_);}
	.st10{fill:url(#SVGID_11_);}
	.st11{fill:url(#SVGID_12_);}
	.st12{fill:url(#SVGID_13_);}
	.st13{fill:url(#SVGID_14_);}
	.st14{fill:url(#SVGID_15_);}
	.st15{fill:url(#SVGID_16_);}
	.st16{fill:url(#SVGID_17_);}
	.st17{fill:none;stroke:url(#SVGID_18_);stroke-width:1.55;stroke-miterlimit:10;}
	.st18{fill:url(#SVGID_19_);}
	.st19{fill:url(#SVGID_20_);}
	.st20{fill:url(#SVGID_21_);}
	.st21{fill:url(#SVGID_22_);}
	.st22{fill:url(#SVGID_23_);}
	.st23{fill:url(#SVGID_24_);}
	.st24{fill:#FFFFFF;}
	.st25{fill:url(#SVGID_25_);}
	.st26{fill:url(#SVGID_26_);}
	.st27{fill:url(#SVGID_27_);}
	.st28{fill:url(#SVGID_28_);}
	.st29{fill:url(#SVGID_29_);}
	.st30{fill:#191337;}
	.st31{fill:url(#SVGID_30_);}
	.st32{fill:url(#SVGID_31_);}
	.st33{fill:url(#SVGID_32_);}
	.st34{fill:url(#SVGID_33_);}
	.st35{fill:url(#SVGID_34_);}
	.st36{fill:url(#SVGID_35_);}
	.st37{fill:url(#SVGID_36_);}
	.st38{fill:url(#SVGID_37_);}
	.st39{fill:url(#SVGID_38_);}
	.st40{fill:none;stroke:#17FF44;stroke-width:1.95;stroke-miterlimit:10;}
	.st41{fill:url(#SVGID_39_);}
	.st42{fill:url(#SVGID_40_);}
	.st43{fill:url(#SVGID_41_);}
	.st44{fill:url(#SVGID_42_);}
	.st45{fill:none;stroke:#D6D9E8;stroke-width:5.49;stroke-miterlimit:10;}
	.st46{fill:url(#SVGID_43_);}
	.st47{fill:url(#SVGID_44_);}
	.st48{fill:url(#SVGID_45_);}
	.st49{fill:url(#SVGID_46_);}
	.st50{fill:url(#SVGID_47_);}
	.st51{fill:url(#SVGID_48_);}
	.st52{fill:url(#SVGID_49_);}
	.st53{fill:url(#SVGID_50_);}
	.st54{fill:url(#SVGID_51_);}
	.st55{fill:url(#SVGID_52_);}
	.st56{fill:#211A49;}
	.st57{fill:none;stroke:#FFFFFF;stroke-miterlimit:10;}
	.st58{fill:#464B8B;}
	.st59{fill:url(#SVGID_53_);}
	.st60{fill:url(#SVGID_54_);}
	.st61{fill:url(#SVGID_55_);}
</style>
<g id="Слой_2">
	
		<linearGradient id="SVGID_1_" gradientUnits="userSpaceOnUse" x1="11.7449" y1="312.7336" x2="638.2551" y2="312.7336" gradientTransform="matrix(1 0 0 -1 0 652)">
		<stop  offset="0" style="stop-color:#F0F2F5"/>
		<stop  offset="0.99" style="stop-color:#F5F7F8"/>
	</linearGradient>
	<path class="st0" d="M616.9,351.8C561.8,239.3,404.5,74.6,200,74.1c-213.4-0.4-234,211.2-119,270s-53.1,132.1,67.1,205.8
		c121.7,74.6,381.7,67.6,445.7,9.6S640.6,400.3,616.9,351.8z"/>
	
		<linearGradient id="SVGID_2_" gradientUnits="userSpaceOnUse" x1="98.0193" y1="155.3858" x2="73.4893" y2="341.5658" gradientTransform="matrix(1 0 0 -1 0 652)">
		<stop  offset="0" style="stop-color:#1F1844"/>
		<stop  offset="0.99" style="stop-color:#3D3C99"/>
	</linearGradient>
	<path class="st1" d="M98.3,497.9c0,0,27-30.1,24.1-41.9s13.9-26.2,14.2-43.5c0.4-19.5-10.1-14.3-13.7-22.7
		c-5.4-12.4,6.6-23.4-11.5-28.1c-12.3-3.2-21,3.1-19.8-12.1s-4.4-34-14.2-40.9c-14.1-9.8-42.8-10.5-33.1,9.2
		c10.2,20.7,1.2,54.8-1.2,64.1C18.2,480.7,98.3,497.9,98.3,497.9z"/>
	
		<linearGradient id="SVGID_3_" gradientUnits="userSpaceOnUse" x1="96.7905" y1="160.1823" x2="75.211" y2="323.9486" gradientTransform="matrix(1 0 0 -1 0 652)">
		<stop  offset="0" style="stop-color:#3F3D9E"/>
		<stop  offset="0.99" style="stop-color:#423E9F"/>
	</linearGradient>
	<path class="st2" d="M68.2,329c3.1,25.5,35,66.2,20.6,93.4s7.5,69.3,7.5,69.3"/>
	
		<linearGradient id="SVGID_4_" gradientUnits="userSpaceOnUse" x1="109.3687" y1="223.8711" x2="200.4087" y2="244.7911" gradientTransform="matrix(1 0 0 -1 0 652)">
		<stop  offset="1.000000e-02" style="stop-color:#BBC0D9"/>
		<stop  offset="1" style="stop-color:#D6DBF8"/>
	</linearGradient>
	<path class="st3" d="M180.1,441c-17.5,6.2,1.4,28.9-17.7,39.1s-43.8,15.4-44.9,10.4c-0.1-0.3-1.1-3.6-2.2-8.4
		c-0.2-1.1-0.5-2.3-0.8-3.6c-0.1-0.4-0.1-0.7-0.2-1.1c-0.7-3.8-1.2-7.7-1.4-11.6c0-0.1,0-0.2,0-0.4c-0.1-1.5-0.1-3.1-0.1-4.7
		s0.1-3,0.3-4.4c0.6-5.5,2.2-10.6,5.4-14.3c0.8-0.9,1.8-1.8,2.8-2.5c13.3-9.3,18.6-4.8,18.5-18.5c-0.2-23.5,6.5-27,14.4-24.7
		s14,3,15.2-5.7s-6-47.4,11.9-47.3c31,0.1,15.3,39.6,12.2,46c-7.5,15.4,8.1,17.8,11.8,29S197.7,434.8,180.1,441z"/>
	
		<linearGradient id="SVGID_5_" gradientUnits="userSpaceOnUse" x1="484.026" y1="463.3087" x2="553.6502" y2="450.557" gradientTransform="matrix(0.9843 -0.1767 -0.1767 -0.9843 -281.7539 985.9061)">
		<stop  offset="0" style="stop-color:#BAC6D8"/>
		<stop  offset="0.99" style="stop-color:#D6DBF8"/>
	</linearGradient>
	<path class="st4" d="M114.1,524.3c0,0-4.7-43.2,28.2-67.4c14.9-10.9,42.5-50,40-92.3"/>
	
		<linearGradient id="SVGID_6_" gradientUnits="userSpaceOnUse" x1="96.2818" y1="220.0496" x2="68.3618" y2="247.4896" gradientTransform="matrix(1 0 0 -1 0 652)">
		<stop  offset="0" style="stop-color:#1F1844"/>
		<stop  offset="0.99" style="stop-color:#3D3C99"/>
	</linearGradient>
	<path class="st5" d="M67.9,404.1c4.1-6.9,33.5,21.7,28.4,28S64,410.7,67.9,404.1z"/>
	
		<linearGradient id="SVGID_7_" gradientUnits="userSpaceOnUse" x1="95.4079" y1="197.0061" x2="62.9178" y2="208.3161" gradientTransform="matrix(1 0 0 -1 0 652)">
		<stop  offset="0" style="stop-color:#1F1844"/>
		<stop  offset="0.99" style="stop-color:#3D3C99"/>
	</linearGradient>
	<path class="st6" d="M60.5,443.1c0.6-8.1,36.1,3.5,34.3,11.5S59.9,450.8,60.5,443.1z"/>
	
		<linearGradient id="SVGID_8_" gradientUnits="userSpaceOnUse" x1="97.8257" y1="220.1281" x2="127.3657" y2="243.3781" gradientTransform="matrix(1 0 0 -1 0 652)">
		<stop  offset="0" style="stop-color:#1F1844"/>
		<stop  offset="0.99" style="stop-color:#3D3C99"/>
	</linearGradient>
	<path class="st7" d="M127.5,407.5c6.3,4.9-24.8,31.7-30.3,25.7S121.5,402.8,127.5,407.5z"/>
	
		<linearGradient id="SVGID_9_" gradientUnits="userSpaceOnUse" x1="95.681" y1="196.9587" x2="124.351" y2="210.6887" gradientTransform="matrix(1 0 0 -1 0 652)">
		<stop  offset="0" style="stop-color:#1F1844"/>
		<stop  offset="0.99" style="stop-color:#3D3C99"/>
	</linearGradient>
	<path class="st8" d="M124.2,441.2c5.3,6-24.7,21-29.2,14.2S119.2,435.5,124.2,441.2z"/>
	
		<linearGradient id="SVGID_10_" gradientUnits="userSpaceOnUse" x1="100.7932" y1="175.3853" x2="62.6032" y2="179.9453" gradientTransform="matrix(1 0 0 -1 0 652)">
		<stop  offset="0" style="stop-color:#1F1844"/>
		<stop  offset="0.99" style="stop-color:#3D3C99"/>
	</linearGradient>
	<path class="st9" d="M62.8,472.2c-1.5-7.4,37.6-3.1,37.9,4.5S64.3,479.2,62.8,472.2z"/>
	
		<linearGradient id="SVGID_11_" gradientUnits="userSpaceOnUse" x1="96.5686" y1="172.6877" x2="122.6486" y2="188.6277" gradientTransform="matrix(1 0 0 -1 0 652)">
		<stop  offset="0" style="stop-color:#1F1844"/>
		<stop  offset="0.99" style="stop-color:#3D3C99"/>
	</linearGradient>
	<path class="st10" d="M122.3,463.6c4.1,6.9-24,24-27.2,16.5S118.5,457,122.3,463.6z"/>
	
		<linearGradient id="SVGID_12_" gradientUnits="userSpaceOnUse" x1="106.3363" y1="280.266" x2="97.4063" y2="243.766" gradientTransform="matrix(1 0 0 -1 0 652)">
		<stop  offset="1.000000e-02" style="stop-color:#3D3C99"/>
		<stop  offset="1" style="stop-color:#1F1844"/>
	</linearGradient>
	<path class="st11" d="M106.9,370.7c7.9,0.6-2.3,40.4-10.1,38.5S99.3,370.2,106.9,370.7z"/>
	
		<linearGradient id="SVGID_13_" gradientUnits="userSpaceOnUse" x1="1853.484" y1="606.7697" x2="1865.2739" y2="606.7697" gradientTransform="matrix(0.7025 -0.7117 -0.7117 -0.7025 -792.0209 2168.3113)">
		<stop  offset="0" style="stop-color:#E0E4EB"/>
		<stop  offset="0.99" style="stop-color:#F3F6FD"/>
	</linearGradient>
	<path class="st12" d="M70.9,402.2c4.1-6.9,33.5,21.7,28.4,28S67,408.8,70.9,402.2z"/>
	
		<linearGradient id="SVGID_14_" gradientUnits="userSpaceOnUse" x1="2808.4373" y1="60.127" x2="2820.3391" y2="60.127" gradientTransform="matrix(0.3054 -0.9522 -0.9522 -0.3054 -723.3478 3149.0994)">
		<stop  offset="0" style="stop-color:#E0E4EB"/>
		<stop  offset="0.99" style="stop-color:#F3F6FD"/>
	</linearGradient>
	<path class="st13" d="M62.8,441.5c0.6-8.1,36.1,3.5,34.3,11.5S62.3,449.2,62.8,441.5z"/>
	
		<linearGradient id="SVGID_15_" gradientUnits="userSpaceOnUse" x1="-961.0071" y1="-1497.3621" x2="-949.1971" y2="-1497.3621" gradientTransform="matrix(0.63 0.78 0.78 -0.63 1876.4899 211.82)">
		<stop  offset="0" style="stop-color:#E0E4EB"/>
		<stop  offset="0.99" style="stop-color:#F3F6FD"/>
	</linearGradient>
	<path class="st14" d="M128.7,405.7c6.3,4.9-24.8,31.7-30.3,25.7S122.7,401,128.7,405.7z"/>
	
		<linearGradient id="SVGID_16_" gradientUnits="userSpaceOnUse" x1="112.8219" y1="198.1814" x2="125.1219" y2="210.8015" gradientTransform="matrix(1 0 0 -1 0 652)">
		<stop  offset="1.000000e-02" style="stop-color:#BBC0D9"/>
		<stop  offset="1" style="stop-color:#D6DBF8"/>
	</linearGradient>
	<path class="st15" d="M113.7,454.9c0.6-5.4,2.1-10.4,5.2-14c3.8-0.8,6.9-0.6,8.3,1C130.1,445.2,122.1,451.3,113.7,454.9z"/>
	
		<linearGradient id="SVGID_17_" gradientUnits="userSpaceOnUse" x1="-956.2354" y1="-1937.1194" x2="-944.1451" y2="-1937.1194" gradientTransform="matrix(0.5 0.87 0.77 -0.45 2079.71 405.21)">
		<stop  offset="0" style="stop-color:#E0E4EB"/>
		<stop  offset="0.99" style="stop-color:#F3F6FD"/>
	</linearGradient>
	<path class="st16" d="M125.7,439.9c5.3,6-24.7,21-29.2,14.2S120.7,434.2,125.7,439.9z"/>
	
		<linearGradient id="SVGID_18_" gradientUnits="userSpaceOnUse" x1="591.5069" y1="503.4194" x2="608.8785" y2="503.4194" gradientTransform="matrix(0.9729 -0.2314 -0.2314 -0.9729 -364.9302 1077.9755)">
		<stop  offset="0" style="stop-color:#E0E4EB"/>
		<stop  offset="0.99" style="stop-color:#F3F6FD"/>
	</linearGradient>
	<path class="st17" d="M98.9,399.9c0,0,0.9,20.7-1.8,38.7s4.2,48.6,15.4,58.4"/>
	
		<linearGradient id="SVGID_19_" gradientUnits="userSpaceOnUse" x1="3413.8528" y1="-408.0617" x2="3426.2129" y2="-408.0617" gradientTransform="matrix(4.000000e-02 -0.93 -1 -4.000000e-02 -463.3 3641.99)">
		<stop  offset="0" style="stop-color:#E0E4EB"/>
		<stop  offset="0.99" style="stop-color:#F3F6FD"/>
	</linearGradient>
	<path class="st18" d="M62.8,470.7c-1.5-7.4,37.6-3.1,37.9,4.5S64.3,477.8,62.8,470.7z"/>
	
		<linearGradient id="SVGID_20_" gradientUnits="userSpaceOnUse" x1="113.1113" y1="178.3533" x2="125.3913" y2="191.9733" gradientTransform="matrix(1 0 0 -1 0 652)">
		<stop  offset="1.000000e-02" style="stop-color:#BBC0D9"/>
		<stop  offset="1" style="stop-color:#D6DBF8"/>
	</linearGradient>
	<path class="st19" d="M115.2,476.6c-0.1-0.3-0.1-0.7-0.2-1c-0.7-3.8-1.2-7.6-1.4-11.4c0-0.1,0-0.2,0-0.4c6.4-3.5,13.2-5.3,15-2.3
		C130.8,465.4,123.1,472.5,115.2,476.6z"/>
	
		<linearGradient id="SVGID_21_" gradientUnits="userSpaceOnUse" x1="-842.0233" y1="-2520.1396" x2="-828.6433" y2="-2520.1396" gradientTransform="matrix(0.35 0.94 0.74 -0.28 2274.8801 557.4)">
		<stop  offset="0" style="stop-color:#E0E4EB"/>
		<stop  offset="0.99" style="stop-color:#F3F6FD"/>
	</linearGradient>
	<path class="st20" d="M127.1,458.6c4.1,6.9-24,24-27.2,16.5S123.3,452.1,127.1,458.6z"/>
	
		<linearGradient id="SVGID_22_" gradientUnits="userSpaceOnUse" x1="108.2493" y1="280.7952" x2="99.3293" y2="244.2952" gradientTransform="matrix(1 0 0 -1 0 652)">
		<stop  offset="0" style="stop-color:#E6EAF1"/>
		<stop  offset="0.99" style="stop-color:#F3F6FD"/>
	</linearGradient>
	<path class="st21" d="M108.8,370.2c7.9,0.6-2.3,40.4-10.1,38.5S101.3,369.6,108.8,370.2z"/>
	
		<linearGradient id="SVGID_23_" gradientUnits="userSpaceOnUse" x1="71.7588" y1="120.6407" x2="139.7788" y2="136.2707" gradientTransform="matrix(1 0 0 -1 0 652)">
		<stop  offset="0.11" style="stop-color:#8988D5"/>
		<stop  offset="0.56" style="stop-color:#9D9CE8"/>
		<stop  offset="1" style="stop-color:#A7A5EE"/>
	</linearGradient>
	<path class="st22" d="M115.6,561.2H91.2c-11,0-20.3-8.1-21.7-19l-6-44.8c-0.4-2.8,1.6-5.3,4.3-5.7c0.2,0,0.4,0,0.7,0h69.8
		c2.8,0,5.1,2.3,5,5.1c0,0.2,0,0.4,0,0.7l-6,44.8C135.9,553.1,126.6,561.2,115.6,561.2z"/>
	
		<linearGradient id="SVGID_24_" gradientUnits="userSpaceOnUse" x1="91.7677" y1="437.5556" x2="407.0577" y2="437.5556" gradientTransform="matrix(1 0 0 -1 0 652)">
		<stop  offset="1.000000e-02" style="stop-color:#BBBFD9"/>
		<stop  offset="1" style="stop-color:#D6DBF8"/>
	</linearGradient>
	<path class="st23" d="M103.2,106.2h292.4c6.3,0,11.5,5.1,11.5,11.4v193.6c0,6.3-5.1,11.5-11.5,11.5H103.2
		c-6.3,0-11.4-5.1-11.4-11.5V117.6C91.8,111.3,96.9,106.2,103.2,106.2z"/>
	<path class="st24" d="M107.6,115.5h283.7c3.8,0,6.8,3.1,6.8,6.8v184.2c0,3.8-3.1,6.8-6.8,6.8H107.6c-3.8,0-6.8-3.1-6.8-6.8V122.3
		C100.7,118.5,103.8,115.5,107.6,115.5z"/>
	
		<linearGradient id="SVGID_25_" gradientUnits="userSpaceOnUse" x1="419.8577" y1="177.2156" x2="446.2729" y2="177.2156" gradientTransform="matrix(1 0 0 -1 0 652)">
		<stop  offset="1.000000e-02" style="stop-color:#BBBFD9"/>
		<stop  offset="1" style="stop-color:#D6DBF8"/>
	</linearGradient>
	<path class="st25" d="M426,531.7c-3.4,0-6.1-2.8-6.1-6.2c0-0.3,0-0.6,0.1-0.8l14.4-106.9l11.9,1.4L432,526.5
		C431.6,529.5,426,531.7,426,531.7z"/>
	
		<linearGradient id="SVGID_26_" gradientUnits="userSpaceOnUse" x1="517.7277" y1="182.8518" x2="544.5877" y2="182.8518" gradientTransform="matrix(1 0 0 -1 0 652)">
		<stop  offset="1.000000e-02" style="stop-color:#BBBFD9"/>
		<stop  offset="1" style="stop-color:#D6DBF8"/>
	</linearGradient>
	<path class="st26" d="M532.5,523.9L517.7,415l10-4l16.7,110.8c0.7,3.9-2.3,4.7-5.3,5.2S533.2,527.9,532.5,523.9z"/>
	
		<linearGradient id="SVGID_27_" gradientUnits="userSpaceOnUse" x1="481.2677" y1="175.3665" x2="506.1963" y2="175.3665" gradientTransform="matrix(1 0 0 -1 0 652)">
		<stop  offset="1.000000e-02" style="stop-color:#BBBFD9"/>
		<stop  offset="1" style="stop-color:#D6DBF8"/>
	</linearGradient>
	<path class="st27" d="M493.9,536.9l-12.6-124.1h12.3L506.2,536c0.3,3.8-2.6,3.7-5.5,4.1C497.4,540.6,494.2,541.2,493.9,536.9z"/>
	
		<linearGradient id="SVGID_28_" gradientUnits="userSpaceOnUse" x1="482.7096" y1="232.1956" x2="482.7096" y2="397.2256" gradientTransform="matrix(1 0 0 -1 0 652)">
		<stop  offset="0" style="stop-color:#D6DBF8"/>
		<stop  offset="0.99" style="stop-color:#BBBFD9"/>
	</linearGradient>
	<path class="st28" d="M539.7,398.3c-2.6,19.3-31,22-64,23.1c-1,0.5-37.5,0.3-54.4-5.4l0.6-130.6c0-11,4.7-29.2,20.8-29.5
		c27-0.5,77.2-4.6,96.8,1.5c4.5,16.1,7.8,33.9,0.3,80.5C535.4,364.5,541,389.1,539.7,398.3z"/>
	
		<linearGradient id="SVGID_29_" gradientUnits="userSpaceOnUse" x1="534.5179" y1="311.158" x2="549.5179" y2="309.658" gradientTransform="matrix(1 0 0 -1 0 652)">
		<stop  offset="1.000000e-02" style="stop-color:#BBBFD9"/>
		<stop  offset="1" style="stop-color:#D6DBF8"/>
	</linearGradient>
	<path class="st29" d="M532.3,265.4c6,18,5.2,28.4-2.8,57.5c-13.3,48.5,8.5,73.3-37.6,97.8c28-1.6,45.6-5.9,47.8-22.3
		c1.3-9.3-4.3-33.9,0-60.5c5.5-34.3,15.8-62.3,2.1-78.9C538.1,254.4,530.2,259.4,532.3,265.4z"/>
	<path class="st30" d="M367,541c-1.6,1.9-17.6,27.6-17.6,27.6l-3.5-1.1c0,0,2.7-13.2,5-20.3c-2.6-0.3-18.5,14.7-21.4,16.2
		s-24.3-6.8-26.4-11.7s2-9.2,2-9.2s12.3,1.8,15.4,1c2.2,4.8,7,5.5,16.7,1.2s26.9-17.7,26.9-17.7C366.6,531.7,368.6,539.1,367,541z"
		/>
	
		<linearGradient id="SVGID_30_" gradientUnits="userSpaceOnUse" x1="898.6315" y1="469.6322" x2="959.087" y2="469.6322" gradientTransform="matrix(0.9646 -0.2637 -0.2637 -0.9646 -426.8562 1217.6359)">
		<stop  offset="0" style="stop-color:#A96E46"/>
		<stop  offset="1" style="stop-color:#D59950"/>
	</linearGradient>
	<path class="st31" d="M371.6,501.3c0,0-6.7,9.6-7.8,14.6S364,527,364,527s-17.2,13.4-26.9,17.7s-14.5,3.6-16.7-1.2
		c8.3-8,15.3-17.3,20.5-27.6c8.5-16.8,10-21.1,10-21.1L371.6,501.3z"/>
	<path class="st30" d="M451.5,516.9c-1.9,3.5-6,26.9-6,26.9h-3.7l-2.3-19.3c0,0-6.5,8.2-7.1,12.4c-0.4,2.6-1.6,5-3.3,6.9
		c0,0-22.5,1.6-25.6-0.8s-1.7-7.7-1.5-8.6s12.5-3.9,12.5-3.9l0.7,0.2c12.9,3.3,17.4-7.3,20.6-11.4c2.9-3.8,8.6-16.8,9.8-19.6
		l0.2-0.5c0,0,4,4.5,5.6,7.9S453.4,513.4,451.5,516.9z"/>
	
		<linearGradient id="SVGID_31_" gradientUnits="userSpaceOnUse" x1="415.3377" y1="142.6296" x2="445.7377" y2="142.6296" gradientTransform="matrix(1 0 0 -1 0 652)">
		<stop  offset="0" style="stop-color:#A96E46"/>
		<stop  offset="1" style="stop-color:#D59950"/>
	</linearGradient>
	<path class="st32" d="M445.7,499.8c-1.2,2.8-7,15.8-9.8,19.6c-3.1,4.1-7.7,14.8-20.6,11.4c2.3-4.7,4-9.8,4.9-15
		c1.2-7.9,2.6-12.3,1.2-19.5s18-9,18-9S440.4,496.7,445.7,499.8z"/>
	
		<linearGradient id="SVGID_32_" gradientUnits="userSpaceOnUse" x1="479.8145" y1="382.16" x2="458.8545" y2="468.94" gradientTransform="matrix(1 0 0 -1 0 652)">
		<stop  offset="0" style="stop-color:#464B8B"/>
		<stop  offset="0.22" style="stop-color:#393C76"/>
		<stop  offset="0.58" style="stop-color:#27275A"/>
		<stop  offset="0.78" style="stop-color:#201F4F"/>
	</linearGradient>
	<path class="st33" d="M523.9,238.6c0.4,5.3-2.6,9.8-8.6,10c-6.1,0.2-1.1,9.8-5.2,11.3s-8.9-3.3-9.5,1.3s-6.7,6.8-9.9,5.1
		s-1.7-3.6-5.4-2.4c-0.9,0.3-1.7,0.5-2.6,0.7c-2,0.2-3.4-0.4-6.2-2.2c-3.9-2.5-21.6-7.5-26.4-4.8c-4.3,2.4-1.6,7-4.2,10.5
		s-11.3,0.7-12.6-3.2c-1.7-5-8.1,0-11.7-4.5c-5-6.3,5.4-9.9-5-14.1c-5.5-2.2-8.9-7.4-7.2-14.9c1.5-6.6-5.5-7.3-3.2-13.3
		c2.4-6.2,0.1-7.6,0.8-12.1c1.1-8.1,4.5-4.8,7.9-7.8s-3.8-9.3,1.4-13s1.5-7.5,3.9-11c4.8-6.7,7-6.2,11.8-10.9s5.7,1.2,8.1,3.7v-0.1
		c0.2-7.2,1.5-7.7,6-11.9s3.7,0.6,10.4,1.6s8.6-8.6,13-10.9s7.1,4,11,5.3s1.1-1,6.9,4.2s4.6,9.3,9.4,9.5s10.2-3.3,14.3,2.5
		c4.1,5.8,0,11,3.7,14s7.6-0.2,8.4,6.8s-3.2,9.8,0,13.3s-4.2,4.1-6.1,9.6s-0.7,6,0.4,12.1C518.2,228.9,523.5,233.4,523.9,238.6z"/>
	
		<linearGradient id="SVGID_33_" gradientUnits="userSpaceOnUse" x1="375.3734" y1="245.6853" x2="448.7677" y2="245.6853" gradientTransform="matrix(1 0 0 -1 0 652)">
		<stop  offset="0" style="stop-color:#F7D6D2"/>
		<stop  offset="0.95" style="stop-color:#F7E5E3"/>
	</linearGradient>
	<path class="st34" d="M448.8,371.9c-11-0.7-43,0.6-57.6,4.3c-27.5,7-12.8,38-2.1,64.8c3.7-9,9.9-48.5,13.6-53.1
		C410.1,378.6,438.8,373.6,448.8,371.9z"/>
	
		<linearGradient id="SVGID_34_" gradientUnits="userSpaceOnUse" x1="394.6077" y1="194.7456" x2="440.9277" y2="194.7456" gradientTransform="matrix(1 0 0 -1 0 652)">
		<stop  offset="5.000000e-02" style="stop-color:#F7E5E3"/>
		<stop  offset="1" style="stop-color:#F7D6D2"/>
	</linearGradient>
	<polygon class="st35" points="419,412.5 410.4,425.6 394.6,449.7 419.9,502 440.9,490.1 	"/>
	
		<linearGradient id="SVGID_35_" gradientUnits="userSpaceOnUse" x1="373.5081" y1="341.6722" x2="490.4981" y2="357.7722" gradientTransform="matrix(1 0 0 -1 0 652)">
		<stop  offset="1.000000e-02" style="stop-color:#3D3C99"/>
		<stop  offset="1" style="stop-color:#1F1844"/>
	</linearGradient>
	<path class="st36" d="M460.7,247.6c-18.4,2.6-26.2,4-33.6,15.3c-8.9,13.7-19,60.5-19,60.5l-8.4,0.9l4.4,17.6
		c-0.3-1.5,4-8.6,23.8-17.6c1.6,10.6,3.9,25.8,3.9,26.2h16.6C447.4,315.7,446.3,280.2,460.7,247.6z"/>
	
		<linearGradient id="SVGID_36_" gradientUnits="userSpaceOnUse" x1="424.8481" y1="347.4523" x2="478.1681" y2="354.7923" gradientTransform="matrix(1 0 0 -1 0 652)">
		<stop  offset="1.000000e-02" style="stop-color:#BBBFD9"/>
		<stop  offset="0.29" style="stop-color:#CACDE2"/>
		<stop  offset="0.84" style="stop-color:#F2F3F8"/>
		<stop  offset="1" style="stop-color:#FFFFFF"/>
	</linearGradient>
	<path class="st37" d="M484.1,245.7l-19.7,1.6l-16.6,72.6c-0.1,10.3,0.2,20.6,0.4,30.9h17.6C456.5,314.9,472.2,279,484.1,245.7z"/>
	
		<linearGradient id="SVGID_37_" gradientUnits="userSpaceOnUse" x1="434.2422" y1="365.473" x2="462.4221" y2="369.353" gradientTransform="matrix(1 0 0 -1 0 652)">
		<stop  offset="0" style="stop-color:#FFFFFF"/>
		<stop  offset="0.16" style="stop-color:#F2F3F8"/>
		<stop  offset="0.71" style="stop-color:#CACDE2"/>
		<stop  offset="0.99" style="stop-color:#BBBFD9"/>
	</linearGradient>
	<path class="st38" d="M463.2,247.4l-1.3,0.1l-1.2,0.2c-7.5,17-10.8,34.8-12.1,53c-0.5,6.4-0.7,12.8-0.7,19.2l16.6-72.6L463.2,247.4
		z"/>
	
		<linearGradient id="SVGID_38_" gradientUnits="userSpaceOnUse" x1="385.3527" y1="240.4274" x2="416.8527" y2="221.4274" gradientTransform="matrix(1 0 0 -1 0 652)">
		<stop  offset="5.000000e-02" style="stop-color:#F7E5E3"/>
		<stop  offset="1" style="stop-color:#F7D6D2"/>
	</linearGradient>
	<path class="st39" d="M516.1,367.8l-80.5-1.1c0,0-31.8,2.9-42.4,21.3c-1.4,2.4-9.8,20.5-9.8,20.5c-13.9,32.7-38.1,92.6-40.8,99.9
		l23.8,11.4l51.3-88.2l13.1-14c0,0,40.3-2,62.1-9.7C526.8,396.1,516.1,367.8,516.1,367.8z"/>
	<path class="st40" d="M426.5,366.5c0,0-3.6-0.5-9.3-0.8"/>
	
		<linearGradient id="SVGID_39_" gradientUnits="userSpaceOnUse" x1="274.1477" y1="338.6556" x2="408.6877" y2="338.6556" gradientTransform="matrix(1 0 0 -1 0 652)">
		<stop  offset="1.000000e-02" style="stop-color:#BBBFD9"/>
		<stop  offset="0.29" style="stop-color:#CACDE2"/>
		<stop  offset="0.84" style="stop-color:#F2F3F8"/>
		<stop  offset="1" style="stop-color:#FFFFFF"/>
	</linearGradient>
	<path class="st41" d="M401.6,350.9h-86.5l-15.9-68.1c-0.7-3.1,1.2-6.1,4.2-6.8c0.4-0.1,0.9-0.2,1.3-0.2h80.8L401.6,350.9z"/>
	
		<linearGradient id="SVGID_40_" gradientUnits="userSpaceOnUse" x1="390.3595" y1="312.0242" x2="422.7595" y2="354.3942" gradientTransform="matrix(1 0 0 -1 0 652)">
		<stop  offset="0" style="stop-color:#FFFFFF"/>
		<stop  offset="0.16" style="stop-color:#F2F3F8"/>
		<stop  offset="0.71" style="stop-color:#CACDE2"/>
		<stop  offset="0.99" style="stop-color:#BBBFD9"/>
	</linearGradient>
	<path class="st42" d="M438.2,346.7l-0.9,4.1h-35.7l-18.7-71.4c-0.4-1.5,0.5-3.1,2-3.5c0.2-0.1,0.5-0.1,0.7-0.1l0,0
		c1.3,0,2.5,0.9,2.8,2.2l11.3,46.5l4.3,17.6l0,0c0,0.1,0,0.1,0,0.2v0.1h30.6c2,0,3.6,1.6,3.6,3.6
		C438.3,346.1,438.3,346.4,438.2,346.7z"/>
	<circle class="st24" cx="346.7" cy="315.2" r="7.3"/>
	
		<linearGradient id="SVGID_41_" gradientUnits="userSpaceOnUse" x1="411.1801" y1="311.8589" x2="437.6801" y2="321.3589" gradientTransform="matrix(1 0 0 -1 0 652)">
		<stop  offset="0" style="stop-color:#FFD0B9"/>
		<stop  offset="1" style="stop-color:#A96E46"/>
	</linearGradient>
	<path class="st43" d="M425.6,325.1c-21.9,8.1-22,15.7-21.7,17.2h28.8c2.6-2.7,5.9-4.7,9.5-5.8l-2.6-14
		C433.5,323.2,428.1,324.1,425.6,325.1z"/>
	
		<linearGradient id="SVGID_42_" gradientUnits="userSpaceOnUse" x1="495.199" y1="462.3655" x2="488.179" y2="352.4855" gradientTransform="matrix(1 0 0 -1 0 652)">
		<stop  offset="0" style="stop-color:#1F1844"/>
		<stop  offset="0.99" style="stop-color:#3D3C99"/>
	</linearGradient>
	<path class="st44" d="M535.5,302c0-9.5-3.4-38.4-13.1-49c-11.7-12.8-32.4-7.5-32.4-7.5l-7.6,0.5c-8.6,24.2-18.4,47.6-19.5,73.4
		c-8-0.4-16.1,0-24,1l3.7,21.8l19.8,4.2c0,0,2.5,0.2,3.6,4.2h45c3.7,0,7.3-0.6,10.7-2c3.4-1.4,6.9-3.7,8.6-7.5
		C533.1,334.6,535.5,322.9,535.5,302z"/>
	<path class="st45" d="M479.5,326c0,0,9.1-0.8,9.1,6.9s-9.1,7.7-9.1,7.7"/>
	
		<linearGradient id="SVGID_43_" gradientUnits="userSpaceOnUse" x1="454.63" y1="319.0671" x2="482.6902" y2="319.0671" gradientTransform="matrix(1 0 0 -1 0 652)">
		<stop  offset="0" style="stop-color:#FFFFFF"/>
		<stop  offset="0.16" style="stop-color:#F2F3F8"/>
		<stop  offset="0.71" style="stop-color:#CACDE2"/>
		<stop  offset="0.99" style="stop-color:#BBBFD9"/>
	</linearGradient>
	<path class="st46" d="M480.6,350.7h-22.7l-3.2-32.4c-0.1-1.7,1.1-3.1,2.8-3.2c0.1,0,0.2,0,0.3,0h21.8c1.7-0.1,3.1,1.2,3.1,2.9
		c0,0.1,0,0.2,0,0.3L480.6,350.7z"/>
	
		<linearGradient id="SVGID_44_" gradientUnits="userSpaceOnUse" x1="569.6577" y1="194.7006" x2="587.6876" y2="194.7006" gradientTransform="matrix(1 0 0 -1 0 652)">
		<stop  offset="0.11" style="stop-color:#8988D5"/>
		<stop  offset="0.56" style="stop-color:#9D9CE8"/>
		<stop  offset="1" style="stop-color:#A7A5EE"/>
	</linearGradient>
	<path class="st47" d="M583,549.6h-8.6c-2.6,0-4.7-1.4-4.7-3.2V365h18v181.5C587.7,548.2,585.6,549.6,583,549.6z"/>
	
		<linearGradient id="SVGID_45_" gradientUnits="userSpaceOnUse" x1="261.3277" y1="194.7006" x2="278.1682" y2="194.7006" gradientTransform="matrix(1 0 0 -1 0 652)">
		<stop  offset="0.11" style="stop-color:#8988D5"/>
		<stop  offset="0.56" style="stop-color:#9D9CE8"/>
		<stop  offset="1" style="stop-color:#A7A5EE"/>
	</linearGradient>
	<path class="st48" d="M275.4,549.6h-11.3c-1.5,0-2.8-0.9-2.8-2V365h16.8v182.6C278.2,548.7,276.9,549.6,275.4,549.6z"/>
	
		<linearGradient id="SVGID_46_" gradientUnits="userSpaceOnUse" x1="424.4077" y1="283.8256" x2="424.4077" y2="300.8856" gradientTransform="matrix(1 0 0 -1 0 652)">
		<stop  offset="0.11" style="stop-color:#343381"/>
		<stop  offset="0.56" style="stop-color:#3D3C99"/>
		<stop  offset="1" style="stop-color:#403DA0"/>
	</linearGradient>
	<path class="st49" d="M261.6,350.7h325.6c5.8,0,10.5,4.7,10.5,10.4v0v8.5l0,0H251.2l0,0v-8.5C251.2,355.4,255.8,350.7,261.6,350.7
		C261.6,350.7,261.6,350.7,261.6,350.7z"/>
	
		<linearGradient id="SVGID_47_" gradientUnits="userSpaceOnUse" x1="440.5887" y1="376.5956" x2="463.1577" y2="376.5956" gradientTransform="matrix(1 0 0 -1 0 652)">
		<stop  offset="1.000000e-02" style="stop-color:#3D3C99"/>
		<stop  offset="1" style="stop-color:#1F1844"/>
	</linearGradient>
	<path class="st50" d="M463.2,242.9l-17.4,4.7l-4.5,14.8c-0.9,2.8-0.9,5.8,0,8.6l6.6,36.9C447.8,307.9,456.4,253.2,463.2,242.9z"/>
	
		<linearGradient id="SVGID_48_" gradientUnits="userSpaceOnUse" x1="418.1567" y1="415.3128" x2="482.1567" y2="444.9428" gradientTransform="matrix(1 0 0 -1 0 652)">
		<stop  offset="0" style="stop-color:#A96E29"/>
		<stop  offset="1" style="stop-color:#D59950"/>
	</linearGradient>
	<path class="st51" d="M485.3,244.4c0,0-0.1-5.5-2.3-22c0-0.2-0.1-0.5-0.1-0.7c-0.2-1.6-0.3-3.2-0.4-4.7c0.1-0.1,0.1-0.2,0.2-0.3
		c4.8-8.5,4-14.1,0.7-16c-0.4-0.2-0.9-0.4-1.4-0.5l0,0c0,0,1.3-10.9-3.1-19.6c-5.9-11.6-22.6-11.7-32.8-8.8s-19.1,15.3-15.6,26.6
		c1.4,4.5,3.5,8.6,4,12.7s-1.2,10.9,2,17.6c4.5,9.6,14.9,12.1,21.2,12.1c0.8,0,1.6-0.1,2.4-0.2l0.3,1.7l0.6,4.2l-0.4,19
		c0,1.4,1.1,2.6,2.6,2.6c0.7,0,1.4-0.3,1.9-0.8C472.3,259.2,485.8,247.4,485.3,244.4z"/>
	
		<linearGradient id="SVGID_49_" gradientUnits="userSpaceOnUse" x1="483.1799" y1="430.7732" x2="460.5499" y2="408.5632" gradientTransform="matrix(1 0 0 -1 0 652)">
		<stop  offset="0" style="stop-color:#FFD0B9;stop-opacity:0"/>
		<stop  offset="1" style="stop-color:#A96E46"/>
	</linearGradient>
	<path class="st52" d="M482.9,222.3c-4,10-12.2,17.8-22.5,21.2l-0.2-1.4l-0.3-1.7c6.9-3.9,14.7-10.9,22.7-23.9
		c0,0.1-0.1,0.2-0.2,0.3c0,1.6,0.1,3.2,0.4,4.7C482.9,221.8,482.9,222.1,482.9,222.3z"/>
	
		<linearGradient id="SVGID_50_" gradientUnits="userSpaceOnUse" x1="487.4355" y1="452.9678" x2="483.9455" y2="449.5378" gradientTransform="matrix(1 0 0 -1 0 652)">
		<stop  offset="0" style="stop-color:#753200"/>
		<stop  offset="1" style="stop-color:#A04400"/>
	</linearGradient>
	<path class="st53" d="M482.3,199.1c0,0,2.1-4,4.4-1.5s0,7.6,0,7.6L482.3,199.1z"/>
	
		<linearGradient id="SVGID_51_" gradientUnits="userSpaceOnUse" x1="465.197" y1="377.8306" x2="507.7277" y2="377.8306" gradientTransform="matrix(1 0 0 -1 0 652)">
		<stop  offset="0" style="stop-color:#1F1844"/>
		<stop  offset="0.99" style="stop-color:#3D3C99"/>
	</linearGradient>
	<path class="st54" d="M498.7,245.6l-9.7,1.5c0,0-20.2,24.4-23.4,52.7c-0.1,0.9-0.5,2.5-0.5,3.1c14.3-25.6,42.5-44.3,42.5-44.3
		L498.7,245.6z"/>
	
		<linearGradient id="SVGID_52_" gradientUnits="userSpaceOnUse" x1="465.6032" y1="380.7856" x2="506.1777" y2="380.7856" gradientTransform="matrix(1 0 0 -1 0 652)">
		<stop  offset="1.000000e-02" style="stop-color:#3D3C99"/>
		<stop  offset="1" style="stop-color:#1F1844"/>
	</linearGradient>
	<path class="st55" d="M497.2,242.6l-9.7,1.5c0,0-18.7,25.4-21.9,53.6c-0.1,0.7-0.1,1.5,0,2.2c9.9-27.9,40.5-44.4,40.5-44.4
		L497.2,242.6z"/>
	<polygon class="st56" points="497,242.2 489.6,240.5 487.2,244.1 497.2,242.6 	"/>
	<path class="st57" d="M439.9,371.7l-28.2,11.1c-7.7,3-13.8,9-16.9,16.6l-48.2,110.2"/>
	<path class="st58" d="M425.8,192.8c0-0.8,0-1.6,0.2-2.3C425.8,192,425.8,192.8,425.8,192.8z"/>
	
		<linearGradient id="SVGID_53_" gradientUnits="userSpaceOnUse" x1="418.6338" y1="445.5151" x2="531.346" y2="445.5151" gradientTransform="matrix(1 0 0 -1 0 652)">
		<stop  offset="0.22" style="stop-color:#201F4F"/>
		<stop  offset="0.42" style="stop-color:#27275A"/>
		<stop  offset="0.78" style="stop-color:#393C76"/>
		<stop  offset="1" style="stop-color:#464B8B"/>
	</linearGradient>
	<path class="st59" d="M530.7,246.2c2.7,4.5-3.2,13-9.7,13.3s-5.6,4-10.1,5.5c-4.5,1.5-9.6-3.3-10.3,1.3s-6.8-1.5-10.3,0.3
		c-4.9,2.6-3.4-5.9-7.5-4.9c-8,2.1-4-4-9.1-5.9c-9.3-3.6,6.2-15.9,5.1-19.1c-1.6-4.8-7.1-2.7-6.6-9s7.4-6.3,3.4-10
		c-3.4-3.1-4.7-6.8-1.5-9.8s0.9-5.5-6.3-7.8s-4.5-10.8-3.3-15.1s-10.5,3.1-19,3.9c-4.8,0.5-9.3-2.3-11-6.9c0,0-6.7,10.4-3.6,19
		c-13-9.4-13.4-23-11.2-32.3c2.2-9,5.7-7.1,10.6-11.4s8.4-14.2,18-7.3c6.1,4.4,12-4.4,17.2-4.7c7-0.5,7.8,1.6,12,2.9s6.8-3,13.2,2.3
		s-0.4,11.3,4.8,11.5s11-3.3,15.5,2.5c4.5,5.8,0,11.1,4,14.1c4,3,6.1,2,9.2,6.8c3.8,5.9-3.5,9.8,0,13.3s5.2,6.5,3,12.1
		s4.2,6.4,4.2,15.1C531.2,232.1,522.7,233,530.7,246.2z"/>
	
		<linearGradient id="SVGID_54_" gradientUnits="userSpaceOnUse" x1="497.0177" y1="339.1156" x2="506.9077" y2="339.1156" gradientTransform="matrix(1 0 0 -1 0 652)">
		<stop  offset="0" style="stop-color:#1F1844"/>
		<stop  offset="0.99" style="stop-color:#3D3C99"/>
	</linearGradient>
	<path class="st60" d="M506.9,328.2l-3.6-30.7c0,0-4.5,2.2-4.9,6.6S497,326,497,326L506.9,328.2z"/>
	
		<linearGradient id="SVGID_55_" gradientUnits="userSpaceOnUse" x1="423.2073" y1="337.278" x2="433.3773" y2="338.6781" gradientTransform="matrix(1 0 0 -1 0 652)">
		<stop  offset="1.000000e-02" style="stop-color:#3D3C99"/>
		<stop  offset="1" style="stop-color:#1F1844"/>
	</linearGradient>
	<polygon class="st61" points="434.4,302.8 427.8,324.5 434.4,323.1 	"/>
</g>
</svg>
