<?xml version="1.0" encoding="utf-8"?>
<!-- Generator: Adobe Illustrator 24.2.3, SVG Export Plug-In . SVG Version: 6.00 Build 0)  -->
<svg version="1.1" id="Layer_1" xmlns="http://www.w3.org/2000/svg" xmlns:xlink="http://www.w3.org/1999/xlink" x="0px" y="0px"
	 viewBox="0 0 650 545" style="enable-background:new 0 0 650 545;" xml:space="preserve">
<style type="text/css">
	.st0{fill:url(#SVGID_1_);}
	.st1{fill:url(#SVGID_2_);}
	.st2{fill:none;stroke:url(#SVGID_3_);stroke-width:0.73;stroke-miterlimit:10;}
	.st3{fill:url(#SVGID_4_);}
	.st4{fill:none;stroke:url(#SVGID_5_);stroke-width:2.1;stroke-miterlimit:10;}
	.st5{fill:url(#SVGID_6_);}
	.st6{fill:url(#SVGID_7_);}
	.st7{fill:url(#SVGID_8_);}
	.st8{fill:url(#SVGID_9_);}
	.st9{fill:url(#SVGID_10_);}
	.st10{fill:url(#SVGID_11_);}
	.st11{fill:url(#SVGID_12_);}
	.st12{fill:url(#SVGID_13_);}
	.st13{fill:url(#SVGID_14_);}
	.st14{fill:url(#SVGID_15_);}
	.st15{fill:url(#SVGID_16_);}
	.st16{fill:url(#SVGID_17_);}
	.st17{fill:none;stroke:url(#SVGID_18_);stroke-width:1.22;stroke-miterlimit:10;}
	.st18{fill:url(#SVGID_19_);}
	.st19{fill:url(#SVGID_20_);}
	.st20{fill:url(#SVGID_21_);}
	.st21{fill:url(#SVGID_22_);}
	.st22{fill:url(#SVGID_23_);}
	.st23{fill:#1F1844;}
	.st24{fill:#737CBD;}
	.st25{fill:#F0EFF3;}
	.st26{fill:none;stroke:#FFFFFF;stroke-width:6;stroke-miterlimit:10;}
	.st27{fill:#FFFFFF;}
	.st28{fill:none;stroke:url(#SVGID_24_);stroke-width:5;stroke-linecap:round;stroke-miterlimit:10;}
	.st29{fill:none;stroke:url(#SVGID_25_);stroke-width:5;stroke-linecap:round;stroke-miterlimit:10;}
	.st30{fill:none;stroke:url(#SVGID_26_);stroke-width:5;stroke-linecap:round;stroke-miterlimit:10;}
	.st31{fill:url(#SVGID_27_);}
	.st32{fill:url(#SVGID_28_);}
	.st33{fill:url(#SVGID_29_);}
	.st34{fill:#D59950;}
	.st35{fill:url(#SVGID_30_);}
	.st36{fill:url(#SVGID_31_);}
	.st37{fill:url(#SVGID_32_);}
	.st38{fill:none;stroke:url(#SVGID_33_);stroke-width:5;stroke-linecap:round;stroke-miterlimit:10;}
	.st39{fill:none;stroke:url(#SVGID_34_);stroke-width:5;stroke-linecap:round;stroke-miterlimit:10;}
	.st40{fill:none;stroke:url(#SVGID_35_);stroke-width:5;stroke-linecap:round;stroke-miterlimit:10;}
	.st41{fill:none;stroke:url(#SVGID_36_);stroke-width:5;stroke-linecap:round;stroke-miterlimit:10;}
	.st42{fill:none;stroke:url(#SVGID_37_);stroke-width:5;stroke-linecap:round;stroke-miterlimit:10;}
	.st43{fill:none;stroke:url(#SVGID_38_);stroke-width:5;stroke-linecap:round;stroke-miterlimit:10;}
	.st44{fill:none;stroke:url(#SVGID_39_);stroke-width:5;stroke-linecap:round;stroke-miterlimit:10;}
	.st45{fill:none;stroke:url(#SVGID_40_);stroke-width:5;stroke-linecap:round;stroke-miterlimit:10;}
	.st46{fill:none;stroke:url(#SVGID_41_);stroke-width:5;stroke-linecap:round;stroke-miterlimit:10;}
	.st47{fill:none;stroke:url(#SVGID_42_);stroke-width:5;stroke-linecap:round;stroke-miterlimit:10;}
	.st48{fill:none;stroke:url(#SVGID_43_);stroke-width:5;stroke-linecap:round;stroke-miterlimit:10;}
	.st49{fill:none;stroke:url(#SVGID_44_);stroke-width:5;stroke-linecap:round;stroke-miterlimit:10;}
	.st50{fill:none;stroke:url(#SVGID_45_);stroke-width:5;stroke-linecap:round;stroke-miterlimit:10;}
	.st51{fill:none;stroke:url(#SVGID_46_);stroke-width:4.91;stroke-linecap:round;stroke-miterlimit:10;}
	.st52{fill:none;stroke:url(#SVGID_47_);stroke-width:5;stroke-linecap:round;stroke-miterlimit:10;}
	.st53{fill:url(#SVGID_48_);}
	.st54{fill:#BA00FF;}
	.st55{fill:url(#SVGID_49_);}
	.st56{fill:#0B008A;}
	.st57{fill:url(#SVGID_50_);}
	.st58{fill:url(#SVGID_51_);}
	.st59{fill:url(#SVGID_52_);}
	.st60{fill:url(#SVGID_53_);}
	.st61{fill:none;stroke:url(#SVGID_54_);stroke-width:5;stroke-linecap:round;stroke-miterlimit:10;}
</style>
<g id="Слой_3">
	
		<linearGradient id="SVGID_1_" gradientUnits="userSpaceOnUse" x1="7.516" y1="388.9646" x2="634.0613" y2="388.9646" gradientTransform="matrix(1 0 0 1 0 -116)">
		<stop  offset="0" style="stop-color:#F0F2F5"/>
		<stop  offset="0.99" style="stop-color:#F5F7F8"/>
	</linearGradient>
	<path class="st0" d="M612.6,285.4C557.6,172.9,400.2,8.2,195.8,7.8c-213.4-0.4-234,211.2-119,270s-53.1,132.1,67.1,205.8
		c121.7,74.6,381.7,67.6,445.7,9.6S636.4,334,612.6,285.4z"/>
	
		<linearGradient id="SVGID_2_" gradientUnits="userSpaceOnUse" x1="95.7271" y1="551.8799" x2="76.4371" y2="405.5299" gradientTransform="matrix(1 0 0 1 0 -116)">
		<stop  offset="0" style="stop-color:#1F1844"/>
		<stop  offset="0.99" style="stop-color:#3D3C99"/>
	</linearGradient>
	<path class="st1" d="M95.9,436.9c0,0,21.2-23.6,19-33s10.9-20.6,11.2-34.2c0.3-15.4-7.9-11.3-10.8-17.8c-4.2-9.7,5.2-18.4-9-22.1
		c-9.7-2.5-16.5,2.4-15.6-9.5s-3.4-26.8-11.2-32.2c-11.1-7.7-33.6-8.3-26,7.2c8,16.3,1,43.1-0.9,50.4
		C32.9,423.4,95.9,436.9,95.9,436.9z"/>
	
		<linearGradient id="SVGID_3_" gradientUnits="userSpaceOnUse" x1="94.7326" y1="548.0686" x2="77.7656" y2="419.362" gradientTransform="matrix(1 0 0 1 0 -116)">
		<stop  offset="0" style="stop-color:#3F3D9E"/>
		<stop  offset="0.99" style="stop-color:#423E9F"/>
	</linearGradient>
	<path class="st2" d="M72.2,304.1c2.4,20,27.5,52,16.2,73.4s5.9,54.5,5.9,54.5"/>
	
		<linearGradient id="SVGID_4_" gradientUnits="userSpaceOnUse" x1="104.5513" y1="498.0219" x2="176.1213" y2="481.5719" gradientTransform="matrix(1 0 0 1 0 -116)">
		<stop  offset="1.000000e-02" style="stop-color:#BBC0D9"/>
		<stop  offset="1" style="stop-color:#D6DBF8"/>
	</linearGradient>
	<path class="st3" d="M160.2,392.2c-13.8,4.9,1.1,22.7-13.9,30.7c-15.1,8-34.4,12.1-35.3,8.2c-0.1-0.3-0.9-2.9-1.7-6.6
		c-0.2-0.9-0.4-1.8-0.6-2.8c0-0.3-0.1-0.6-0.2-0.8c-0.6-3-0.9-6.1-1.1-9.1c0-0.1,0-0.2,0-0.3c-0.1-1.2-0.1-2.4-0.1-3.7
		s0.1-2.3,0.2-3.5c0.4-4.3,1.7-8.3,4.2-11.2c0.6-0.8,1.4-1.4,2.2-2c10.5-7.3,14.7-3.8,14.6-14.5c-0.1-18.5,5.1-21.2,11.3-19.4
		s11,2.3,11.9-4.5s-4.7-37.2,9.4-37.2c24.3,0.1,12,31.1,9.6,36.2c-5.9,12.1,6.4,14,9.3,22.8S174,387.3,160.2,392.2z"/>
	
		<linearGradient id="SVGID_5_" gradientUnits="userSpaceOnUse" x1="117.4968" y1="1178.3826" x2="172.2716" y2="1188.4153" gradientTransform="matrix(0.9843 -0.1767 0.1767 0.9843 -216.5997 -744.2419)">
		<stop  offset="0" style="stop-color:#BAC6D8"/>
		<stop  offset="0.99" style="stop-color:#D6DBF8"/>
	</linearGradient>
	<path class="st4" d="M108.3,457.7c0,0-3.7-34,22.2-53c11.7-8.6,33.4-39.3,31.5-72.5"/>
	
		<linearGradient id="SVGID_6_" gradientUnits="userSpaceOnUse" x1="94.2828" y1="501.0673" x2="72.3327" y2="479.4973" gradientTransform="matrix(1 0 0 1 0 -116)">
		<stop  offset="0" style="stop-color:#1F1844"/>
		<stop  offset="0.99" style="stop-color:#3D3C99"/>
	</linearGradient>
	<path class="st5" d="M72,363.2c3.2-5.5,26.3,17,22.3,22S68.9,368.4,72,363.2z"/>
	
		<linearGradient id="SVGID_7_" gradientUnits="userSpaceOnUse" x1="93.5924" y1="519.173" x2="68.0524" y2="510.283" gradientTransform="matrix(1 0 0 1 0 -116)">
		<stop  offset="0" style="stop-color:#1F1844"/>
		<stop  offset="0.99" style="stop-color:#3D3C99"/>
	</linearGradient>
	<path class="st6" d="M66.1,393.8c0.5-6.4,28.4,2.8,26.9,9.1S65.7,399.9,66.1,393.8z"/>
	
		<linearGradient id="SVGID_8_" gradientUnits="userSpaceOnUse" x1="95.4714" y1="500.9763" x2="118.7014" y2="482.6963" gradientTransform="matrix(1 0 0 1 0 -116)">
		<stop  offset="0" style="stop-color:#1F1844"/>
		<stop  offset="0.99" style="stop-color:#3D3C99"/>
	</linearGradient>
	<path class="st7" d="M118.8,365.8c4.9,3.9-19.5,24.9-23.8,20.2S114.1,362.1,118.8,365.8z"/>
	
		<linearGradient id="SVGID_9_" gradientUnits="userSpaceOnUse" x1="93.8059" y1="519.2223" x2="116.3559" y2="508.4223" gradientTransform="matrix(1 0 0 1 0 -116)">
		<stop  offset="0" style="stop-color:#1F1844"/>
		<stop  offset="0.99" style="stop-color:#3D3C99"/>
	</linearGradient>
	<path class="st8" d="M116.3,392.3c4.2,4.7-19.4,16.5-23,11.2S112.3,387.8,116.3,392.3z"/>
	
		<linearGradient id="SVGID_10_" gradientUnits="userSpaceOnUse" x1="97.8242" y1="536.1739" x2="67.8041" y2="532.5939" gradientTransform="matrix(1 0 0 1 0 -116)">
		<stop  offset="0" style="stop-color:#1F1844"/>
		<stop  offset="0.99" style="stop-color:#3D3C99"/>
	</linearGradient>
	<path class="st9" d="M68,416.7c-1.2-5.8,29.6-2.5,29.8,3.5S69.2,422.2,68,416.7z"/>
	
		<linearGradient id="SVGID_11_" gradientUnits="userSpaceOnUse" x1="94.5074" y1="538.3085" x2="115.0174" y2="525.7785" gradientTransform="matrix(1 0 0 1 0 -116)">
		<stop  offset="0" style="stop-color:#1F1844"/>
		<stop  offset="0.99" style="stop-color:#3D3C99"/>
	</linearGradient>
	<path class="st10" d="M114.8,409.9c3.2,5.4-18.9,18.9-21.4,13S111.7,404.7,114.8,409.9z"/>
	
		<linearGradient id="SVGID_12_" gradientUnits="userSpaceOnUse" x1="102.1585" y1="453.7224" x2="95.1385" y2="482.4123" gradientTransform="matrix(1 0 0 1 0 -116)">
		<stop  offset="1.000000e-02" style="stop-color:#3D3C99"/>
		<stop  offset="1" style="stop-color:#1F1844"/>
	</linearGradient>
	<path class="st11" d="M102.6,336.9c6.2,0.5-1.8,31.8-8,30.3S96.7,336.5,102.6,336.9z"/>
	
		<linearGradient id="SVGID_13_" gradientUnits="userSpaceOnUse" x1="-859.4255" y1="3471.2686" x2="-850.1555" y2="3471.2686" gradientTransform="matrix(0.7025 -0.7117 0.7117 0.7025 -1786.6543 -2672.1331)">
		<stop  offset="0" style="stop-color:#E0E4EB"/>
		<stop  offset="0.99" style="stop-color:#F3F6FD"/>
	</linearGradient>
	<path class="st12" d="M74.3,361.7c3.2-5.5,26.3,17,22.3,22S71.2,366.9,74.3,361.7z"/>
	
		<linearGradient id="SVGID_14_" gradientUnits="userSpaceOnUse" x1="-2407.4924" y1="4684.2759" x2="-2398.1296" y2="4684.2759" gradientTransform="matrix(0.3054 -0.9522 0.9522 0.3054 -3646.0198 -3318.6917)">
		<stop  offset="0" style="stop-color:#E0E4EB"/>
		<stop  offset="0.99" style="stop-color:#F3F6FD"/>
	</linearGradient>
	<path class="st13" d="M68,392.5c0.5-6.4,28.4,2.8,26.9,9.1S67.6,398.6,68,392.5z"/>
	
		<linearGradient id="SVGID_15_" gradientUnits="userSpaceOnUse" x1="-1730.9686" y1="-2512.2454" x2="-1721.6886" y2="-2512.2454" gradientTransform="matrix(0.63 0.78 -0.78 0.63 -766.1 3301.2)">
		<stop  offset="0" style="stop-color:#E0E4EB"/>
		<stop  offset="0.99" style="stop-color:#F3F6FD"/>
	</linearGradient>
	<path class="st14" d="M119.8,364.4c4.9,3.9-19.5,24.9-23.8,20.2S115.1,360.7,119.8,364.4z"/>
	
		<linearGradient id="SVGID_16_" gradientUnits="userSpaceOnUse" x1="107.3113" y1="518.2805" x2="116.9813" y2="508.3605" gradientTransform="matrix(1 0 0 1 0 -116)">
		<stop  offset="1.000000e-02" style="stop-color:#BBC0D9"/>
		<stop  offset="1" style="stop-color:#D6DBF8"/>
	</linearGradient>
	<path class="st15" d="M108,403.1c0.4-4.3,1.6-8.2,4.1-11c3-0.6,5.4-0.5,6.5,0.8C120.9,395.5,114.6,400.3,108,403.1z"/>
	
		<linearGradient id="SVGID_17_" gradientUnits="userSpaceOnUse" x1="-2280.5154" y1="-3226.5022" x2="-2270.999" y2="-3226.5022" gradientTransform="matrix(0.5 0.87 -0.77 0.45 -1249.97 3812.4399)">
		<stop  offset="0" style="stop-color:#E0E4EB"/>
		<stop  offset="0.99" style="stop-color:#F3F6FD"/>
	</linearGradient>
	<path class="st16" d="M117.4,391.3c4.2,4.7-19.4,16.5-23,11.2S113.5,386.8,117.4,391.3z"/>
	
		<linearGradient id="SVGID_18_" gradientUnits="userSpaceOnUse" x1="82.3755" y1="1413.2815" x2="96.0254" y2="1413.2815" gradientTransform="matrix(0.9729 -0.2314 0.2314 0.9729 -314.7127 -955.5126)">
		<stop  offset="0" style="stop-color:#E0E4EB"/>
		<stop  offset="0.99" style="stop-color:#F3F6FD"/>
	</linearGradient>
	<path class="st17" d="M96.3,359.9c0,0,0.7,16.3-1.4,30.5s3.3,38.2,12.1,45.9"/>
	
		<linearGradient id="SVGID_19_" gradientUnits="userSpaceOnUse" x1="-3378.2397" y1="4982.686" x2="-3368.52" y2="4982.686" gradientTransform="matrix(4.000000e-02 -0.93 1 4.000000e-02 -4764.3701 -2930.8901)">
		<stop  offset="0" style="stop-color:#E0E4EB"/>
		<stop  offset="0.99" style="stop-color:#F3F6FD"/>
	</linearGradient>
	<path class="st18" d="M68,415.6c-1.2-5.8,29.6-2.5,29.8,3.5S69.2,421.1,68,415.6z"/>
	
		<linearGradient id="SVGID_20_" gradientUnits="userSpaceOnUse" x1="107.4729" y1="533.8056" x2="117.1229" y2="523.0956" gradientTransform="matrix(1 0 0 1 0 -116)">
		<stop  offset="1.000000e-02" style="stop-color:#BBC0D9"/>
		<stop  offset="1" style="stop-color:#D6DBF8"/>
	</linearGradient>
	<path class="st19" d="M109.1,420.2c0-0.3-0.1-0.5-0.2-0.8c-0.5-3-0.9-6-1.1-9c0-0.1,0-0.2,0-0.3c5-2.8,10.4-4.2,11.8-1.8
		C121.4,411.4,115.3,416.9,109.1,420.2z"/>
	
		<linearGradient id="SVGID_21_" gradientUnits="userSpaceOnUse" x1="-2877.3694" y1="-3995.8345" x2="-2866.8494" y2="-3995.8345" gradientTransform="matrix(0.35 0.94 -0.74 0.28 -1853.0199 4206.52)">
		<stop  offset="0" style="stop-color:#E0E4EB"/>
		<stop  offset="0.99" style="stop-color:#F3F6FD"/>
	</linearGradient>
	<path class="st20" d="M118.5,406c3.2,5.4-18.9,18.9-21.4,13S115.5,400.9,118.5,406z"/>
	
		<linearGradient id="SVGID_22_" gradientUnits="userSpaceOnUse" x1="103.6631" y1="453.3034" x2="96.6431" y2="481.9934" gradientTransform="matrix(1 0 0 1 0 -116)">
		<stop  offset="0" style="stop-color:#E6EAF1"/>
		<stop  offset="0.99" style="stop-color:#F3F6FD"/>
	</linearGradient>
	<path class="st21" d="M104.1,336.5c6.2,0.5-1.8,31.8-8,30.3S98.2,336.1,104.1,336.5z"/>
	
		<linearGradient id="SVGID_23_" gradientUnits="userSpaceOnUse" x1="75.0126" y1="579.211" x2="128.4725" y2="566.9309" gradientTransform="matrix(1 0 0 1 0 -116)">
		<stop  offset="0.11" style="stop-color:#8988D5"/>
		<stop  offset="0.56" style="stop-color:#9D9CE8"/>
		<stop  offset="1" style="stop-color:#A7A5EE"/>
	</linearGradient>
	<path class="st22" d="M109.4,486.7H90.3c-8.6,0-15.9-6.4-17.1-14.9l-4.8-35.2c-0.3-2.2,1.3-4.2,3.5-4.5c0.2,0,0.3,0,0.5,0h54.9
		c2.2,0,4,1.8,4,4c0,0.2,0,0.3,0,0.5l-4.8,35.2C125.3,480.3,118.1,486.7,109.4,486.7z"/>
	<path class="st23" d="M342.5,41.4h181.4c9.1,0,16.5,7.4,16.5,16.5v410.9c0,9.1-7.4,16.5-16.5,16.5H342.5c-9.1,0-16.5-7.4-16.5-16.5
		V57.9C326,48.8,333.4,41.4,342.5,41.4z"/>
	<path class="st24" d="M350.8,59.6h164.8c6.7,0,12.2,5.5,12.2,12.2v383.1c0,6.7-5.5,12.2-12.2,12.2H350.8c-6.7,0-12.2-5.5-12.2-12.2
		V71.8C338.6,65.1,344.1,59.6,350.8,59.6z"/>
	<path class="st23" d="M387.3,53.2h91.8l0,0l0,0c0,10.6-8.6,19.2-19.2,19.2l0,0h-53.4C395.9,72.4,387.3,63.8,387.3,53.2L387.3,53.2
		L387.3,53.2L387.3,53.2z"/>
	<path class="st25" d="M466.2,83.4h45.2c2.3,0,4.2,1.9,4.2,4.2v8.5c0,2.3-1.9,4.2-4.2,4.2h-45.2c-2.3,0-4.2-1.9-4.2-4.2v-8.5
		C462,85.3,463.8,83.4,466.2,83.4z"/>
	<path class="st25" d="M357.3,116.2h54.8c2.3,0,4.2,1.9,4.2,4.2v9.6c0,2.3-1.9,4.2-4.2,4.2h-54.8c-2.3,0-4.2-1.9-4.2-4.2v-9.6
		C353.1,118.1,355,116.2,357.3,116.2z"/>
	<path class="st25" d="M361.5,88.7h46.3c1.8,0,3.2,1.4,3.2,3.2l0,0c0,1.8-1.4,3.2-3.2,3.2h-46.3c-1.8,0-3.2-1.4-3.2-3.2l0,0
		C358.3,90.1,359.7,88.7,361.5,88.7z"/>
	<path class="st25" d="M365.5,144.8h135.4c3.9,0,7.1,3.2,7.1,7.1v211.3c0,3.9-3.2,7.1-7.1,7.1H365.5c-3.9,0-7.1-3.2-7.1-7.1V151.9
		C358.4,148,361.6,144.8,365.5,144.8z"/>
	<path class="st25" d="M365.5,391h135.4c3.9,0,7.1,3.2,7.1,7.1v25.7c0,3.9-3.2,7.1-7.1,7.1H365.5c-3.9,0-7.1-3.2-7.1-7.1v-25.7
		C358.4,394.2,361.6,391,365.5,391z"/>
	<circle class="st26" cx="433.2" cy="217.1" r="54.8"/>
	<path class="st27" d="M380.6,288.1h105.2c4.1,0,7.4,3.3,7.4,7.4v14.4c0,4.1-3.3,7.4-7.4,7.4H380.6c-4.1,0-7.4-3.3-7.4-7.4v-14.4
		C373.2,291.4,376.5,288.1,380.6,288.1z"/>
	<path class="st27" d="M380.6,329.3h105.2c4.1,0,7.4,3.3,7.4,7.4v14.4c0,4.1-3.3,7.4-7.4,7.4H380.6c-4.1,0-7.4-3.3-7.4-7.4v-14.4
		C373.2,332.6,376.5,329.3,380.6,329.3z"/>
	
		<linearGradient id="SVGID_24_" gradientUnits="userSpaceOnUse" x1="-7539.2085" y1="-442.6897" x2="-7495.5288" y2="-442.6897" gradientTransform="matrix(-0.99 -0.17 -0.17 0.99 -7223.7495 -718.59)">
		<stop  offset="0" style="stop-color:#201F4F"/>
		<stop  offset="0.26" style="stop-color:#27275A"/>
		<stop  offset="0.72" style="stop-color:#393C76"/>
		<stop  offset="1" style="stop-color:#464B8B"/>
	</linearGradient>
	<path class="st28" d="M253.6,80l5.7-1.2c0.6-0.1,1.3,0.2,1.6,0.8l2,4.1c0.2,0.4,0.6,0.7,1,0.8l3.2,0.6c0.7,0.1,1.2,0.8,1.2,1.5
		l-0.2,3.8c0,0.7,0.5,1.4,1.2,1.5l2.9,0.5c0.7,0.1,1.2,0.8,1.2,1.5l-0.2,3.1c0,0.5,0.2,1,0.7,1.3l3.5,2.1c0.7,0.4,0.9,1.3,0.5,2
		c0,0.1-0.1,0.1-0.1,0.2l-2.2,2.5c-0.5,0.6-0.5,1.5,0.1,2l0.1,0.1l3.9,2.8c0.6,0.4,0.8,1.3,0.4,1.9l-1.7,2.9
		c-0.3,0.5-0.2,1.2,0.1,1.6l2,2.4c0.5,0.6,0.4,1.5-0.2,2l-0.1,0.1l-2.2,1.5c-0.7,0.5-0.8,1.3-0.4,2l3.4,4.7c0.4,0.5,0.4,1.3-0.1,1.8
		l-2.1,2.3c-0.5,0.5-0.5,1.3-0.1,1.9l3.2,4c0.4,0.5,0.4,1.3,0,1.8l-3,3.6c-0.4,0.5-0.4,1.2-0.1,1.8l1.7,2.4c0.3,0.5,0.4,1.1,0.1,1.5
		l-1.5,2.6c-0.1,0.2,0.1,0.6,0.2,1.2c0,0.4,0,0.8,0,1.1"/>
	
		<linearGradient id="SVGID_25_" gradientUnits="userSpaceOnUse" x1="-7532.6685" y1="-441.5862" x2="-7488.9888" y2="-441.5862" gradientTransform="matrix(-0.99 -0.17 -0.17 0.99 -7223.7495 -718.59)">
		<stop  offset="0" style="stop-color:#201F4F"/>
		<stop  offset="0.26" style="stop-color:#27275A"/>
		<stop  offset="0.72" style="stop-color:#393C76"/>
		<stop  offset="1" style="stop-color:#464B8B"/>
	</linearGradient>
	<path class="st29" d="M247,80l5.7-1.2c0.6-0.1,1.3,0.2,1.6,0.8l2,4.1c0.2,0.4,0.6,0.7,1,0.8l3.2,0.6c0.7,0.1,1.2,0.8,1.2,1.5
		l-0.2,3.8c0,0.7,0.5,1.4,1.2,1.5l2.9,0.5c0.7,0.1,1.2,0.8,1.2,1.5l-0.2,3.1c0,0.5,0.2,1,0.7,1.3l3.5,2.1c0.7,0.4,0.9,1.3,0.5,2
		c0,0.1-0.1,0.1-0.1,0.2l-2.2,2.5c-0.5,0.6-0.5,1.5,0.1,2l0.1,0.1l4,2.8c0.6,0.4,0.8,1.3,0.4,1.9l-1.7,2.9c-0.3,0.5-0.2,1.2,0.1,1.6
		l2,2.4c0.5,0.6,0.4,1.5-0.2,2l-0.1,0.1l-2.2,1.5c-0.7,0.5-0.8,1.3-0.4,2l3.4,4.7c0.4,0.5,0.4,1.3-0.1,1.8l-2.1,2.3
		c-0.5,0.5-0.5,1.3-0.1,1.9l3.2,4c0.4,0.5,0.4,1.3,0,1.8l-3,3.6c-0.4,0.5-0.4,1.2-0.1,1.8l1.7,2.4c0.3,0.5,0.4,1.1,0.1,1.5l-1.5,2.6
		c-0.1,0.2,0.1,0.6,0.2,1.2c0,0.4,0,0.8,0,1.1"/>
	
		<linearGradient id="SVGID_26_" gradientUnits="userSpaceOnUse" x1="-7546.8887" y1="-446.328" x2="-7503.2085" y2="-446.328" gradientTransform="matrix(-0.99 -0.17 -0.17 0.99 -7223.7495 -718.59)">
		<stop  offset="0" style="stop-color:#201F4F"/>
		<stop  offset="0.26" style="stop-color:#27275A"/>
		<stop  offset="0.72" style="stop-color:#393C76"/>
		<stop  offset="1" style="stop-color:#464B8B"/>
	</linearGradient>
	<path class="st30" d="M261.8,77.7l5.7-1.2c0.6-0.1,1.3,0.2,1.6,0.8l2,4.1c0.2,0.4,0.6,0.7,1,0.8l3.2,0.6c0.7,0.1,1.2,0.8,1.2,1.5
		l-0.2,3.8c0,0.7,0.5,1.4,1.2,1.5l2.9,0.5c0.7,0.1,1.2,0.8,1.2,1.5l-0.2,3.1c0,0.5,0.2,1,0.7,1.3l3.5,2.1c0.7,0.4,0.9,1.3,0.5,2
		c0,0.1-0.1,0.1-0.1,0.2l-2.2,2.5c-0.5,0.6-0.5,1.5,0.1,2l0.1,0.1l3.9,2.8c0.6,0.4,0.8,1.3,0.4,1.9l-1.7,2.9
		c-0.3,0.5-0.2,1.2,0.1,1.6l2,2.4c0.5,0.6,0.4,1.5-0.2,2l-0.1,0.1l-2.2,1.5c-0.7,0.5-0.8,1.3-0.4,2l3.4,4.7c0.4,0.5,0.4,1.3-0.1,1.8
		l-2.1,2.3c-0.5,0.5-0.5,1.3-0.1,1.9l3.2,4c0.4,0.5,0.4,1.3,0,1.8l-3,3.6c-0.4,0.5-0.4,1.2-0.1,1.8l1.7,2.4c0.3,0.5,0.4,1.1,0.1,1.5
		l-1.5,2.6c-0.1,0.2,0.1,0.6,0.2,1.2c0,0.4,0,0.8,0,1.1"/>
	
		<linearGradient id="SVGID_27_" gradientUnits="userSpaceOnUse" x1="245.0973" y1="270.2613" x2="256.3273" y2="208.7113" gradientTransform="matrix(1 0 0 1 0 -116)">
		<stop  offset="0.28" style="stop-color:#201F4F"/>
		<stop  offset="1" style="stop-color:#201F4F"/>
	</linearGradient>
	<path class="st31" d="M274.1,93c-19.3-16.9-49.9-7.4-54.7,14.2c-1,4.4-1.7,11.2-2,18.7c-0.8,17.6,12.8,32.6,30.4,33.4
		c2.2,0.1,4.4,0,6.6-0.4c5.3-0.9,9.6-1.2,11.3-0.6C288.1,143,290.6,108.7,274.1,93z"/>
	
		<linearGradient id="SVGID_28_" gradientUnits="userSpaceOnUse" x1="205.8701" y1="230.8719" x2="267.72" y2="202.242" gradientTransform="matrix(1 0 0 1 0 -116)">
		<stop  offset="0.28" style="stop-color:#201F4F"/>
		<stop  offset="1" style="stop-color:#201F4F"/>
	</linearGradient>
	<path class="st32" d="M280,101.6c-0.1,1.2-0.2,2.3-0.4,3.4c-1.5-5.9-11.6-12.6-23-11.6c0,0,0,1.4-2.1,1.8s-3.1-2.3-3.6,0
		s-0.5,5.4-3.1,5.4s-4.3,1.7-4.5,3.3s4.2,7.7,2,9.1c-2.5,1.7-4.4,8-4.4,8s-2-14.6-9.9-6.1c-0.6,1.6-1,3.2-1.4,4.7
		c-0.5-1.9,0.1-3.9,1.5-5.2c0.4-0.3,0.8-0.6,1.2-0.8c-1.2-3.9-1.9-7.9-1.9-12c0-2.3-5.1-10.5-4.5-12.9c3.1-12,24.1-19.3,34.3-18.6
		C270.3,71.1,280.9,90.4,280,101.6z"/>
	
		<linearGradient id="SVGID_29_" gradientUnits="userSpaceOnUse" x1="-8999.8584" y1="1403.9716" x2="-9021.5176" y2="1425.2314" gradientTransform="matrix(-0.98 0.21 0.21 0.98 -8855.3701 663.29)">
		<stop  offset="0" style="stop-color:#A04400"/>
		<stop  offset="1" style="stop-color:#753200"/>
	</linearGradient>
	<path class="st33" d="M235.7,135c5.8,8.5,15,14.1,25.3,15.2l-0.1-1.4l-0.1-1.7c-7.3-2.1-15.9-7.2-26.1-17.7l0.2,0.2
		c0.3,1.5,0.5,3,0.6,4.5C235.7,134.5,235.7,134.7,235.7,135z"/>
	<path class="st34" d="M280.5,131.2c-2.3,9.9-11.4,14.4-17.4,15.6c-0.6,0.1-1.1,0.2-1.6,0.2c-0.2,0-0.5,0.1-0.7,0.1l0.1,1.7l0.1,2.1
		l0.1,1.9l8.1,53.7c0.3,1.3-0.5,2.7-1.9,3c-0.7,0.2-1.4,0-2-0.4c-8.5-5.9-27.3-50.2-27.5-53.2c0,0-0.9-4.6-2.1-18.4
		c-0.1-0.9-0.1-1.8-0.2-2.7c0-0.2,0-0.5-0.1-0.7c0-0.5-0.1-1-0.2-1.6c-0.1-1-0.2-2-0.4-2.9c-0.1-0.1-0.1-0.2-0.2-0.2
		c-3.3-3.7-5-7-5.4-9.6c0.2-0.9,0.5-1.8,0.8-2.7c0.5-1.6,1.5-3.1,2.9-4c2.8-1.8,4.4-1.2,5.2-0.2c0.3,0.4,0.9,0.5,1.3,0.2
		c0.2-0.1,0.3-0.3,0.3-0.5c0.8-3.5,2.1-7,3.7-10.2c2.7-5.1,7-10.1,13.7-11.4c1.2-0.2,11.9-1.6,15.1,0.6c2.4,1.7,6,8.1,7.1,13.5l0,0
		c-0.1,0.9-0.3,1.8-0.4,2.7c-0.4,2.2-0.5,4.3-0.4,6.5C279.2,118.3,282.1,124.3,280.5,131.2z"/>
	
		<linearGradient id="SVGID_30_" gradientUnits="userSpaceOnUse" x1="231.401" y1="249.4902" x2="256.901" y2="263.6602" gradientTransform="matrix(1 0 0 1 0 -116)">
		<stop  offset="0" style="stop-color:#A96E46"/>
		<stop  offset="1" style="stop-color:#FFD0B9;stop-opacity:0"/>
	</linearGradient>
	<path class="st35" d="M261,148.9c0,0-16.7-2-25-11.2c-0.1-0.9-0.1-1.8-0.2-2.7c0-0.2,0-0.5-0.1-0.7c0-0.5-0.1-1-0.2-1.6
		c10.1,8.2,18.8,12.5,26.1,14.4c-0.2,0-0.5,0.1-0.7,0.1L261,148.9z"/>
	
		<linearGradient id="SVGID_31_" gradientUnits="userSpaceOnUse" x1="-8999.8496" y1="1388.8876" x2="-9002.6504" y2="1391.6276" gradientTransform="matrix(-0.98 0.21 0.21 0.98 -8855.3701 663.29)">
		<stop  offset="0" style="stop-color:#A96E46"/>
		<stop  offset="1" style="stop-color:#FFD0B9"/>
	</linearGradient>
	<path class="st36" d="M236.2,118.4c0,0-2.4-2.8-3.7-0.4s1.3,6,1.3,6L236.2,118.4z"/>
	
		<linearGradient id="SVGID_32_" gradientUnits="userSpaceOnUse" x1="243.7" y1="215.0886" x2="279.56" y2="215.0886" gradientTransform="matrix(1 0 0 1 0 -116)">
		<stop  offset="0" style="stop-color:#FFD0B9;stop-opacity:0"/>
		<stop  offset="1" style="stop-color:#A96E46"/>
	</linearGradient>
	<path class="st37" d="M279.6,105.1L279.6,105.1c-0.1,0.9-0.3,1.8-0.4,2.7c-2-3.2-7.2-10.6-13.5-11.6c-5.7-0.9-14.4,2.2-21.9,6.2
		c2.7-5.1,7-10.1,13.7-11.4c1.2-0.2,11.9-1.6,15.1,0.6C274.9,93.3,278.4,99.7,279.6,105.1z"/>
	
		<linearGradient id="SVGID_33_" gradientUnits="userSpaceOnUse" x1="208.6347" y1="225.8117" x2="252.3" y2="225.8117" gradientTransform="matrix(1 0 0 1 0 -116)">
		<stop  offset="0" style="stop-color:#201F4F"/>
		<stop  offset="0.26" style="stop-color:#27275A"/>
		<stop  offset="0.72" style="stop-color:#393C76"/>
		<stop  offset="1" style="stop-color:#464B8B"/>
	</linearGradient>
	<path class="st38" d="M249.8,72.7l-5.4-2.1c-0.6-0.2-1.3,0-1.7,0.5l-2.7,3.7c-0.3,0.4-0.7,0.6-1.2,0.6h-3.2c-0.7,0-1.3,0.6-1.4,1.3
		l-0.4,3.8c-0.1,0.7-0.7,1.3-1.4,1.3h-2.9c-0.7,0-1.4,0.6-1.4,1.3l-0.4,3.1c-0.1,0.5-0.4,1-0.9,1.2l-3.7,1.5
		c-0.7,0.3-1.1,1.1-0.8,1.9c0,0.1,0.1,0.1,0.1,0.2l1.8,2.9c0.4,0.7,0.2,1.6-0.5,2c0,0,0,0-0.1,0l-4.4,2.1c-0.7,0.3-1,1.1-0.7,1.8
		l1.2,3.1c0.2,0.6,0,1.2-0.4,1.6l-2.4,2.1c-0.6,0.5-0.7,1.4-0.2,2l0.1,0.1l1.9,1.8c0.6,0.6,0.6,1.5,0,2l0,0l-4.1,4
		c-0.5,0.5-0.6,1.2-0.2,1.8l1.6,2.6c0.4,0.6,0.3,1.4-0.2,1.8l-3.8,3.4c-0.5,0.5-0.6,1.2-0.3,1.8l2.4,4.1c0.3,0.6,0.2,1.3-0.2,1.7
		l-2.1,2c-0.4,0.4-0.5,1-0.3,1.5l1,2.8c0,0.4-0.1,0.8-0.4,1.2c-0.8,1.6-0.4,3.5,1.1,4.5l0.2,3.4"/>
	
		<linearGradient id="SVGID_34_" gradientUnits="userSpaceOnUse" x1="214.3347" y1="232.5617" x2="261.75" y2="232.5617" gradientTransform="matrix(1 0 0 1 0 -116)">
		<stop  offset="0" style="stop-color:#201F4F"/>
		<stop  offset="0.26" style="stop-color:#27275A"/>
		<stop  offset="0.72" style="stop-color:#393C76"/>
		<stop  offset="1" style="stop-color:#464B8B"/>
	</linearGradient>
	<path class="st39" d="M259.2,80.5l-9.1-3.2c-0.6-0.2-1.3,0-1.7,0.5l-2.7,3.7c-0.3,0.4-0.7,0.6-1.2,0.6h-3.2c-0.7,0-1.3,0.6-1.4,1.3
		l-0.4,3.8c-0.1,0.7-0.7,1.3-1.4,1.3h-2.9c-0.7,0-1.3,0.5-1.4,1.3l-0.4,3.1c-0.1,0.5-0.4,1-0.9,1.2l-3.8,1.5
		c-0.7,0.3-1.1,1.1-0.8,1.9c0,0.1,0.1,0.1,0.1,0.2l1.8,2.9c0.4,0.7,0.2,1.6-0.5,2c0,0,0,0-0.1,0l-4.4,2.1c-0.7,0.3-1,1.1-0.7,1.8
		l1.2,3.1c0.2,0.6,0,1.2-0.4,1.6l-2.4,2.1c-0.6,0.5-0.7,1.4-0.2,2l0.1,0.1l1.9,1.9c0.6,0.6,0.6,1.5,0,2l0,0l-4.1,4
		c-0.5,0.5-0.6,1.2-0.2,1.8l1.6,2.6c0.4,0.6,0.3,1.4-0.2,1.8l-3.8,3.4c-0.5,0.5-0.6,1.2-0.3,1.8l2.4,4.1c0.3,0.6,0.2,1.3-0.2,1.7
		l-2.1,2c-0.4,0.4-0.5,1-0.3,1.5l1,2.8c0,0.4-0.1,0.8-0.4,1.2c-0.8,1.6-0.4,3.5,1.1,4.5l0.2,3.4"/>
	
		<linearGradient id="SVGID_35_" gradientUnits="userSpaceOnUse" x1="201.6147" y1="227.7117" x2="245.28" y2="227.7117" gradientTransform="matrix(1 0 0 1 0 -116)">
		<stop  offset="0" style="stop-color:#201F4F"/>
		<stop  offset="0.26" style="stop-color:#27275A"/>
		<stop  offset="0.72" style="stop-color:#393C76"/>
		<stop  offset="1" style="stop-color:#464B8B"/>
	</linearGradient>
	<path class="st40" d="M242.8,76.9l-5.4-2.1c-0.6-0.2-1.3,0-1.7,0.5L233,79c-0.3,0.4-0.7,0.6-1.2,0.6h-3.2c-0.7,0-1.3,0.6-1.4,1.3
		l-0.4,3.8c-0.1,0.7-0.7,1.3-1.4,1.3h-2.9c-0.7,0-1.3,0.5-1.4,1.3l-0.4,3.1c-0.1,0.5-0.4,1-0.9,1.2L216,93c-0.7,0.3-1.1,1.1-0.8,1.9
		c0,0.1,0.1,0.1,0.1,0.2l1.8,2.9c0.4,0.7,0.2,1.6-0.5,2c0,0,0,0-0.1,0l-4.4,2.1c-0.7,0.3-1,1.1-0.7,1.8l1.2,3.1
		c0.2,0.6,0,1.2-0.4,1.6l-2.4,2.1c-0.6,0.5-0.7,1.4-0.2,2l0.1,0.1l1.9,1.8c0.6,0.6,0.6,1.5,0,2l0,0l-4.1,4c-0.5,0.5-0.6,1.2-0.2,1.8
		l1.7,2.6c0.4,0.6,0.3,1.4-0.2,1.8l-3.8,3.4c-0.5,0.5-0.6,1.2-0.3,1.8l2.4,4.1c0.3,0.6,0.2,1.3-0.2,1.7l-2.1,2
		c-0.4,0.4-0.5,1-0.3,1.5l1,2.8c0,0.4-0.1,0.8-0.4,1.2c-0.6,1,2.4,2.4,2.9,3.4"/>
	
		<linearGradient id="SVGID_36_" gradientUnits="userSpaceOnUse" x1="146.3601" y1="-113.598" x2="190.3877" y2="-113.598" gradientTransform="matrix(0.9964 8.454742e-02 -8.454742e-02 0.9964 43.8491 205.3018)">
		<stop  offset="0" style="stop-color:#201F4F"/>
		<stop  offset="0.26" style="stop-color:#27275A"/>
		<stop  offset="0.72" style="stop-color:#393C76"/>
		<stop  offset="1" style="stop-color:#464B8B"/>
	</linearGradient>
	<path class="st41" d="M243.6,73.1l-5.2-2.6c-0.6-0.3-1.3-0.1-1.7,0.3l-3,3.5c-0.3,0.3-0.7,0.5-1.2,0.5l-3.2-0.3
		c-0.7-0.1-1.4,0.4-1.5,1.2l-0.7,3.7c-0.1,0.7-0.8,1.2-1.5,1.2l-2.9-0.2c-0.7-0.1-1.4,0.4-1.5,1.1l-0.6,3.1c-0.1,0.5-0.5,0.9-1,1.1
		l-3.9,1.2c-0.8,0.2-1.2,1.1-0.9,1.8c0,0.1,0,0.1,0.1,0.2l1.5,3c0.4,0.7,0.1,1.6-0.6,1.9c0,0-0.1,0-0.1,0.1l-4.5,1.7
		c-0.7,0.3-1.1,1-0.9,1.7l0.9,3.2c0.2,0.6-0.1,1.2-0.6,1.6l-2.6,1.8c-0.6,0.5-0.8,1.4-0.3,2l0.1,0.1l1.7,2c0.5,0.6,0.5,1.5-0.1,2
		l0,0l-4.4,3.7c-0.5,0.4-0.7,1.2-0.4,1.8l1.4,2.7c0.3,0.6,0.1,1.4-0.4,1.8l-4.1,3.1c-0.5,0.4-0.7,1.1-0.4,1.8l2,4.3
		c0.3,0.6,0.1,1.3-0.4,1.7l-2.2,1.9c-0.4,0.4-0.6,0.9-0.5,1.5l0.8,2.9c0.1,0.2-0.3,0.6-0.5,1.1c-0.7,2.3-2,3.5-0.9,3.6"/>
	
		<linearGradient id="SVGID_37_" gradientUnits="userSpaceOnUse" x1="212.5608" y1="225.25" x2="260.5808" y2="225.25" gradientTransform="matrix(1 0 0 1 0 -116)">
		<stop  offset="0" style="stop-color:#201F4F"/>
		<stop  offset="0.26" style="stop-color:#27275A"/>
		<stop  offset="0.72" style="stop-color:#393C76"/>
		<stop  offset="1" style="stop-color:#464B8B"/>
	</linearGradient>
	<path class="st42" d="M220.6,145.5l0.9-7.1c0-0.2-3.3,0.8-3.4,0.6l-2.8-4.1c-0.2-0.1-0.3-0.4-0.2-0.7c0-0.1,0.1-0.1,0.1-0.2
		l6.8-5.4c0.2-0.2,0.3-0.5,0.1-0.7l-2-2.9c-0.1-0.2-0.1-0.4,0-0.6l3.6-5c0.1-0.1,0.1-0.3,0.1-0.5l-1.8-5c-0.1-0.2,0-0.4,0.1-0.5
		l3-2.6c0.2-0.1,0.2-0.4,0.1-0.6l-2.1-5c-0.1-0.2,0-0.4,0.1-0.5l3-2.9c0.2-0.2,0.2-0.5,0-0.7l-1.4-1.5c-0.2-0.2-0.2-0.5,0-0.7l0,0
		l3.7-3c0.2-0.2,0.2-0.4,0.1-0.6l-1.7-2.8c-0.1-0.2-0.1-0.5,0.2-0.7c0.1,0,0.2-0.1,0.3-0.1h3.5c0.2,0,0.5-0.2,0.5-0.4l0.6-3.8
		c0-0.2,0.2-0.4,0.5-0.4h4.3c0.3,0,0.5-0.2,0.5-0.5v-0.1l-0.6-3.2c0-0.3,0.1-0.5,0.4-0.6h0.1h4.4c0.3,0,0.5-0.2,0.5-0.5l0,0V79
		c0-0.3,0.2-0.5,0.5-0.5l0,0h3.4c0.3,0,0.5-0.2,0.5-0.5l0,0v-3.6c0-0.3,4.3-1.4,4.5-1.4l7,3.3"/>
	
		<linearGradient id="SVGID_38_" gradientUnits="userSpaceOnUse" x1="220.06" y1="230.6" x2="251.43" y2="230.6" gradientTransform="matrix(1 0 0 1 0 -116)">
		<stop  offset="0" style="stop-color:#201F4F"/>
		<stop  offset="0.26" style="stop-color:#27275A"/>
		<stop  offset="0.72" style="stop-color:#393C76"/>
		<stop  offset="1" style="stop-color:#464B8B"/>
	</linearGradient>
	<path class="st43" d="M248.9,79l-9,9.2c-0.5,0.6-0.6,1.4-0.1,2l0,0c0.5,0.7,0.3,1.7-0.4,2.2l-0.1,0.1l-3,1.6
		c-0.8,0.4-1.1,1.3-0.7,2.1c0.3,0.7,2.5,4.1,2.5,4.3c-0.1,0.5-5.6,1.6-5.9,2.1c-0.2,0.3,0.2,2.2,0.6,3.5c0.2,0.8-0.2,1.6-1,1.9
		l-1.4,0.5c-0.6,0.2-1,0.8-1,1.5v5.1c0,0.3-0.1,0.6-0.2,0.9c-0.7,1.2-1.6,2.3-2.5,3.3c-0.8,0.7-0.3,3.7-0.1,4.9
		c0.1,0.3,0,0.7-0.1,0.9l-1.3,2.8c-0.1,0.3-0.2,0.6-0.1,0.9l1.1,6.9c0.1,0.4,0,0.8-0.2,1.1l-1.6,2.4c-0.3,0.4-0.3,0.9-0.2,1.3
		l1.6,5.5c0.2,0.6,0,1.2-0.4,1.6l-2.6,2.6"/>
	
		<linearGradient id="SVGID_39_" gradientUnits="userSpaceOnUse" x1="225.8" y1="232.1297" x2="268.12" y2="232.1297" gradientTransform="matrix(1 0 0 1 0 -116)">
		<stop  offset="0" style="stop-color:#201F4F"/>
		<stop  offset="0.26" style="stop-color:#27275A"/>
		<stop  offset="0.72" style="stop-color:#393C76"/>
		<stop  offset="1" style="stop-color:#464B8B"/>
	</linearGradient>
	<path class="st44" d="M228.3,150.7l2.6-2.6c0.4-0.4,0.6-1,0.4-1.6l-1.5-5.5c-0.1-0.4-0.1-0.9,0.2-1.3l1.6-2.4
		c0.2-0.3,0.3-0.7,0.2-1.1l-1.1-6.9c-0.1-0.3,0-0.6,0.1-0.9l1.3-2.8c0.1-0.3,0.2-0.6,0.1-0.9c-0.2-1.2-0.7-4.2,0.1-4.9
		c1-1,1.8-2.1,2.5-3.3c0.2-0.3,0.3-0.6,0.2-0.9v-5.1c0-0.7,0.4-1.2,1-1.5l1.4-0.5c0.8-0.3,1.2-1.1,1-1.9c-0.3-1.3,2.1-0.9,2.4-1.3
		c1.4-1.2,2.4-2.7,3-4.4c0.1-0.2-2.1-3.7-2.4-4.4c-0.4-0.8-0.1-1.7,0.7-2.1l3-1.6c0.8-0.4,1.1-1.4,0.7-2.2l-0.1-0.1l0,0
		c-0.4-0.6-0.4-1.4,0.1-2l4.4-0.5l2.1-3.5c0.7-0.3,1.5-0.4,2.3-0.3c1.4,0.3,2.8,0.2,4.1-0.4l3.6-1.8c0.9,0.7-2.1,5.7-1,5.5l0.5-0.1
		c1.6-0.4,3.2,0.4,4,1.9l0.1,0.2"/>
	
		<linearGradient id="SVGID_40_" gradientUnits="userSpaceOnUse" x1="249.5" y1="223.2347" x2="289.38" y2="223.2347" gradientTransform="matrix(1 0 0 1 0 -116)">
		<stop  offset="0" style="stop-color:#464B8B"/>
		<stop  offset="0.28" style="stop-color:#393C76"/>
		<stop  offset="0.74" style="stop-color:#27275A"/>
		<stop  offset="1" style="stop-color:#201F4F"/>
	</linearGradient>
	<path class="st45" d="M252,72.5c0,0,6.1-2,8.6-1.7s6.5,4.3,6.8,5l0.8,1.9c0.2,0.4,0.5,0.8,0.9,0.9l0,0c0.6,0.2,1,0.7,1,1.3
		l-2.5,3.5c0.1,0.9,3.7-0.2,4.5-0.2h0.8c0.5,0,1,0.2,1.3,0.6c0.9,1,2.7,3.1,2.6,3.4c-0.3,0.4-0.6,0.8-1,1.2c-0.7,0.7-0.7,1.8,0,2.5
		l0.1,0.1c0.7,0.7,1.6,1.2,2.6,1.5c1.2,0,1.8,3.3,1.4,3.5c-2.3,1.1,1.8,3,2.6,4.4c0.3,0.4,0.4,1,0.2,1.5c-0.3,0.8-0.5,1.7-0.6,2.6
		c0.1,0.3,1.7,2.8,2.6,4.3c0.4,0.7,0.3,1.5-0.2,2.1l-2.2,2.6c-0.5,0.6-0.6,1.4-0.2,2l4.5,2.1c0.2,0.4-2.4,2.1-2.4,2.5l-0.8,4.7
		c-0.1,0.3,0,0.6,0.1,0.9l1.6,4.5c0.2,0.5,0.1,1-0.1,1.4l-1.3,2.5c-0.1,0.2-0.2,0.3-0.3,0.4l-1.2,1.1c-0.7,0.7-0.7,1.8,0,2.5
		c0.1,0.1,0.2,0.2,0.3,0.2l0.1,5.4"/>
	
		<linearGradient id="SVGID_41_" gradientUnits="userSpaceOnUse" x1="279.7184" y1="532.8019" x2="315.6884" y2="532.8019" gradientTransform="matrix(1 -8.000000e-02 8.000000e-02 1 -61.84 -404.33)">
		<stop  offset="0" style="stop-color:#464B8B"/>
		<stop  offset="0.28" style="stop-color:#393C76"/>
		<stop  offset="0.74" style="stop-color:#27275A"/>
		<stop  offset="1" style="stop-color:#201F4F"/>
	</linearGradient>
	<path class="st46" d="M259.2,81.2l5.3-5.5c0.1-0.1,0.2-0.1,0.2-0.2c0.4-0.4,1.6-1.6,2-1.2s1.5,0.1,2.5-0.1c0.8-0.2,1.7,0.2,2.1,0.9
		l0.7,1.1c0.2,0.3,0.4,0.5,0.6,0.6l2.9,1.8c0.4,0.3,0.7,0.6,0.9,1.1l0.9,2.6c0.1,0.4,0.4,0.8,0.7,1l1.9,1.4c0.2,0.1,0.3,0.2,0.4,0.4
		l1.3,1.6c0.3,0.3,0.4,0.8,0.4,1.2l0.1,1.7c0,1,0.7,1.8,1.7,1.9l0,0c1.1,0.2,1.9,1.3,1.7,2.4c0,0.1,0,0.2-0.1,0.2l-0.2,0.8
		c-0.3,0.8,0,1.7,0.7,2.2l2.2,1.6c0.7,0.5,1,1.5,0.7,2.3l-0.1,0.4c-0.3,0.8,0,1.7,0.6,2.2l2.3,1.9c0.8,0.7,1,1.9,0.3,2.8l-1.4,1.8
		c-0.7,0.9-0.5,2.2,0.4,2.9l0.2,0.2c0.6,0.5,0.9,1.3,0.7,2.1l-0.6,2.5c-0.2,0.8,0.1,1.7,0.9,2.2l0.5,0.3c0.9,0.6,1.2,1.9,0.6,2.8
		l0,0l-2.1,3.1c-0.4,0.5-0.5,1.2-0.2,1.8l1.1,3.1c0,0.1,0.1,0.2,0.1,0.2l0.8,3.6"/>
	
		<linearGradient id="SVGID_42_" gradientUnits="userSpaceOnUse" x1="-4723.7144" y1="2540.0796" x2="-4684.7041" y2="2540.0796" gradientTransform="matrix(-0.82 -0.57 0.57 -0.82 -5086.0103 -496.27)">
		<stop  offset="0" style="stop-color:#464B8B"/>
		<stop  offset="0.28" style="stop-color:#393C76"/>
		<stop  offset="0.74" style="stop-color:#27275A"/>
		<stop  offset="1" style="stop-color:#201F4F"/>
	</linearGradient>
	<path class="st47" d="M194.5,131l5.1-1.2c0.4-0.1,0.8-0.4,1-0.8l1.9-3.6c0.4-0.7,1.2-1,1.9-0.7l0.6,0.3c0.8,0.3,1.7,0,2-0.8
		c0.1-0.3,0.1-0.6,0.1-0.9l-1.1-5.5c-0.2-0.8,0.4-1.6,1.2-1.8c0.3-0.1,0.6,0,0.8,0.1l1.8,0.6c0.8,0.3,1.6-0.1,1.9-0.9
		c0-0.1,0.1-0.3,0.1-0.4l0.2-4c0-0.8,0.8-1.5,1.6-1.4c0.1,0,0.2,0,0.3,0l1.1,0.3c0.8,0.2,1.6-0.2,1.8-1l1.8-6.2
		c0.2-0.8,1-1.3,1.8-1.1l2.1,0.5c0.8,0.2,1.6-0.3,1.8-1.1v-0.1l1-5.5c0.1-0.8,0.9-1.4,1.7-1.2c0.2,0,0.4,0.1,0.6,0.2l3.4,2.4
		c0.3,0.2,0.6,0.3,1,0.3c1.9-0.2,8.3-0.9,7.2-3c-1-1.9,2.6,2.9,4.4,4c0.9,0.1,1.8,0,2.7-0.4c1.3-0.4,2.4-1.4,2.8-2.7l0.2-0.7
		c0.3-1,0.9-1.9,1.7-2.6c1.3-1.3,2.4-3.2,4.3-3c1.4,0.1,3.6,2.3,4.9,1.8l5.7-2.2"/>
	
		<linearGradient id="SVGID_43_" gradientUnits="userSpaceOnUse" x1="-4577.8105" y1="2686.2991" x2="-4536.9907" y2="2686.2991" gradientTransform="matrix(-0.78 -0.62 0.62 -0.78 -5012.5801 -638.7)">
		<stop  offset="0" style="stop-color:#464B8B"/>
		<stop  offset="0.28" style="stop-color:#393C76"/>
		<stop  offset="0.74" style="stop-color:#27275A"/>
		<stop  offset="1" style="stop-color:#201F4F"/>
	</linearGradient>
	<path class="st48" d="M186.5,122.1l0.2-4.7c0-0.8,0.5-1.5,1.2-1.9l1.3-0.7c0.9-0.5,1.4-1.5,1.1-2.5l-0.7-3.4
		c-0.3-1.3,0.6-2.5,1.8-2.8c0.3-0.1,0.6-0.1,1,0l0.7,0.1c1.3,0.3,2.5-0.6,2.8-1.8c0-0.2,0.1-0.4,0-0.7l-0.2-2.1
		c-0.1-1.3,0.9-2.4,2.2-2.5h0.1h0.5c1.1,0,2-0.8,2.2-1.8c0.6-2.5,1.6-6.8,1.9-7.1s2.8,0.4,4.7,1.1c1.2,0.4,2.5-0.2,2.9-1.3
		c1-2.4,2.6-5.9,3.7-5.4s3.8,2.7,5.9,4.5c1,0.8,2.5,0.7,3.3-0.3c0.1-0.2,0.2-0.3,0.3-0.5l1.7-3.6c0.6-1.2,2-1.7,3.1-1.1
		c0.2,0.1,0.3,0.2,0.4,0.3l3.8,3c1,0.8,2.5,0.6,3.3-0.4c0-0.1,0.1-0.1,0.1-0.2l2.7-4.2c0.6-1,1.8-1.3,2.9-0.9l5.6,2.4
		c0.3,0.1,1-0.9,1.7-2c1-1.6,3.1-2,4.7-1c0.1,0.1,0.2,0.1,0.3,0.2l1.3,1"/>
	
		<linearGradient id="SVGID_44_" gradientUnits="userSpaceOnUse" x1="-4677.0654" y1="2544.3938" x2="-4646.4995" y2="2544.3938" gradientTransform="matrix(-0.8204 -0.5719 0.5719 -0.8204 -5062.4092 -473.5809)">
		<stop  offset="0" style="stop-color:#464B8B"/>
		<stop  offset="0.3" style="stop-color:#3D417D"/>
		<stop  offset="0.88" style="stop-color:#252558"/>
		<stop  offset="1" style="stop-color:#201F4F"/>
	</linearGradient>
	<path class="st49" d="M193.7,128.4l-0.1-4.7c0-0.8,0.4-1.6,1.1-2l1.3-0.8c0.9-0.6,1.3-1.6,1-2.6l-0.9-3.3c-0.4-1.2,0.3-2.6,1.6-2.9
		c0.3-0.1,0.7-0.1,1-0.1l0.7,0.1c1.3,0.2,2.5-0.7,2.7-2c0-0.2,0-0.5,0-0.7l-0.3-2.1c-0.2-1.3,0.7-2.5,2-2.7c0.1,0,0.1,0,0.2,0h0.5
		c1.1-0.1,2-0.9,2.1-2c0.4-2.5,1.1-6.8,1.5-7.2s2.8,0.2,4.7,0.8c1.2,0.3,2.4-0.3,2.8-1.5c0.8-2.4,2.2-6.1,3.3-5.7s4,2.5,6.1,4.1
		c1,0.8,2.5,0.6,3.3-0.4c0.1-0.2,0.2-0.4,0.3-0.6l1.5-3.6c0.5-1.2,1.9-1.8,3.1-1.3c0.2,0.1,0.3,0.1,0.5,0.2l4.7,0.9
		c1.1,0.8,7.1-1.6,7.8-2.8"/>
	
		<linearGradient id="SVGID_45_" gradientUnits="userSpaceOnUse" x1="246.3096" y1="413.7121" x2="282.5596" y2="413.7121" gradientTransform="matrix(0.98 -0.2 -0.2 -0.98 101.54 573.62)">
		<stop  offset="0" style="stop-color:#464B8B"/>
		<stop  offset="0.28" style="stop-color:#393C76"/>
		<stop  offset="0.74" style="stop-color:#27275A"/>
		<stop  offset="1" style="stop-color:#201F4F"/>
	</linearGradient>
	<path class="st50" d="M298.9,148.1l-4-1.7c-0.7-0.7-1-1.6-0.8-2.6c0.4-1.2,6-5.4,6-5.4c-0.1-0.8-0.7-1.4-1.5-1.4h-0.7
		c-0.8,0-1.5-0.7-1.5-1.5c0-0.3,0.1-0.6,0.3-0.8l3.2-4.6c0.5-0.7,0.3-1.6-0.4-2.1c-0.2-0.1-0.5-0.2-0.7-0.3l-1.9-0.2
		c-0.8-0.1-1.4-0.8-1.4-1.6c0-0.1,0-0.2,0.1-0.4l1.4-3.7c0.3-0.8-0.1-1.6-0.9-1.9c-0.1,0-0.2-0.1-0.3-0.1l-1.1-0.2
		c-0.8-0.1-1.4-0.9-1.3-1.7l0.9-6.4c0.1-0.8-0.4-1.5-1.2-1.7l-2.1-0.4c-0.8-0.1-1.4-0.9-1.2-1.8c0,0,0,0,0-0.1l1.3-5.5
		c0.2-0.8-0.3-1.6-1.1-1.8c-0.2,0-0.4-0.1-0.6,0l-4.1,0.8c-0.3,0.1-0.7,0-1-0.1c-1.7-0.9-7.2-4.1-5.4-5.6c1.7-1.3-3.9,1.3-5-0.6
		c-2-3.4-5.6-3.8-5.9-4.4l1.5-3c-1.3-1.5-2.7-2.8-4.2-4.1l-6.4-1.1"/>
	
		<linearGradient id="SVGID_46_" gradientUnits="userSpaceOnUse" x1="318.8298" y1="260.719" x2="358.0498" y2="260.719" gradientTransform="matrix(0.95 -0.25 -0.25 -0.95 25.76 423.58)">
		<stop  offset="0" style="stop-color:#464B8B"/>
		<stop  offset="0.28" style="stop-color:#393C76"/>
		<stop  offset="0.74" style="stop-color:#27275A"/>
		<stop  offset="1" style="stop-color:#201F4F"/>
	</linearGradient>
	<path class="st51" d="M302.6,107c0-0.5-1.8-3.1-3.7-3.3c-1.2-0.1-2.1-1.1-2.1-2.4c0.1-2.5,0-6.3-1.2-6.4s-2.6-1.6-5.1-0.8
		c-0.6,0.2-1-0.5-1.2-1.5c-0.3-1.5-1.7-2.5-3.1-2.2c-0.2,0-0.4,0.1-0.7,0.2l0,0c0-1.3-1.1-2.3-2.4-2.2c-0.2,0-0.3,0-0.5,0.1
		l-4.6,1.2c-1.2,0.3-2.5-0.4-2.8-1.7c0-0.1,0-0.1,0-0.2l-0.8-4.9c-0.2-1.1-1.1-1.9-2.2-1.9l-6-0.1c-0.3,0-0.6-1.2-0.8-2.5
		c-0.3-1.8-2-3.1-3.8-2.8c-0.1,0-0.2,0-0.3,0.1l-1.6,0.4"/>
	
		<linearGradient id="SVGID_47_" gradientUnits="userSpaceOnUse" x1="284.5302" y1="429.8199" x2="322.0402" y2="429.8199" gradientTransform="matrix(0.98 -0.19 -0.19 -0.98 70.96 593.2)">
		<stop  offset="0" style="stop-color:#464B8B"/>
		<stop  offset="0.3" style="stop-color:#3D417D"/>
		<stop  offset="0.88" style="stop-color:#252558"/>
		<stop  offset="1" style="stop-color:#201F4F"/>
	</linearGradient>
	<path class="st52" d="M300.2,144.7l1.9-4.3c0.3-0.7,0.3-1.6-0.2-2.3l-0.8-1.2c-0.6-0.9-0.5-2,0.1-2.8l2.2-2.7
		c0.8-1,0.7-2.5-0.3-3.3c-0.3-0.2-0.5-0.4-0.9-0.4l-0.6-0.2c-1.3-0.3-2-1.6-1.6-2.9c0.1-0.2,0.2-0.4,0.3-0.6l1.1-1.8
		c0.7-1.1,0.4-2.6-0.7-3.2c0,0-0.1,0-0.1-0.1l-0.4-0.2c-1-0.5-1.4-1.6-1.2-2.7c0.6-2.5,1.7-6.7,1.6-7.2s-2.7-0.9-4.6-1.2
		c-1.2-0.2-2.1-1.3-2-2.5c0.2-2.6,0.4-6.4-0.8-6.5s-4.6,0.7-7.3,1.3c-1.3,0.3-2.5-0.5-2.8-1.7c0-0.2-0.1-0.4-0.1-0.6l0.1-3.9
		c0-1.3-1-2.4-2.3-2.4c-0.2,0-0.4,0-0.5,0l-4.6-1.1c-1.4,0.3-8.3-7.3-12.7-3.8"/>
	<path class="st34" d="M214.5,484.7c0.9,1.7,16.5-2.5,16.5-2.5l-0.4-1.6l-4.5-19.6c-0.2-5.8,0.2-11.6,1.2-17.3
		c-4.6,2.5-14.8,0.7-14.8,0.7s0.9,6.6-0.1,8.8c-0.2,0.5-0.4,1-0.5,1.5c-0.6,3.4-0.7,6.9-0.1,10.4c0.4,2.2,1,8.8,1.6,13.8l0,0
		C213.7,480.8,214,482.8,214.5,484.7z"/>
	
		<linearGradient id="SVGID_48_" gradientUnits="userSpaceOnUse" x1="209.83" y1="582.7001" x2="213.52" y2="582.7001" gradientTransform="matrix(1 0 0 1 0 -116)">
		<stop  offset="5.000000e-02" style="stop-color:#F7E5E3"/>
		<stop  offset="1" style="stop-color:#F7D6D2"/>
	</linearGradient>
	<path class="st53" d="M213.3,477.9L213.3,477.9c0.1,0.3,0.2,0.7,0.3,0.9c-0.6-5-1.2-11.6-1.6-13.8c-0.5-3.4-0.5-6.9,0.1-10.4
		c-1.5,1.6-2.3,3.7-2.2,5.9C210,464,212,473.5,213.3,477.9z"/>
	<path class="st54" d="M213.2,487.7c1.5,4.4,8.1,8.6,13.7,7.8c5.1-0.7,8.9-8.1,3.9-14.9l0.4,1.6c0,0-15.7,4.2-16.5,2.5
		c-0.5-1.9-0.9-3.9-1-5.9l0,0c-0.1-0.3-0.7-5.7-0.8-6C212.2,476,212.3,485.3,213.2,487.7z"/>
	<path class="st34" d="M285.7,479.3c0,1.3-6.9,4.6-8.7,5.2s-5.3-1.9-5.1-6.7s-8.4-24-8.8-25.2c-0.3-0.8,0.5-1.8,0.9-2.2
		c0.2-0.2,0.3-0.2,0.3-0.2l-1.1-5.8l15.7-3.3c0,0,1,9.1,1.6,11.7s0.4,7.1,1.3,11.7c0.8,4.2,3.5,11.8,4,14.2
		C285.7,479,285.7,479.2,285.7,479.3z"/>
	<path class="st54" d="M293.3,492.1c-2.3,1.6-12.9-0.9-17.9-2s-5.3-9.5-5.6-12.7c-0.1-1.5-1.9-4.7-4-8l0,0c-1.3-2.2-2.8-4.5-4.1-6.4
		l0,0l-1.5-2.2c-0.7-1.1-0.9-2.4-0.6-3.7c1-3.7,2.7-5.5,4.2-6.5c-0.4,0.4-1.2,1.3-0.9,2.2c0.4,1.2,9,20.4,8.8,25.2s3.4,7.2,5.1,6.7
		s8.7-3.9,8.7-5.2c0-0.2,0-0.4-0.1-0.6C289,482.5,295.2,490.8,293.3,492.1z"/>
	
		<linearGradient id="SVGID_49_" gradientUnits="userSpaceOnUse" x1="261.72" y1="588.15" x2="266.24" y2="588.15" gradientTransform="matrix(1 0 0 1 0 -116)">
		<stop  offset="5.000000e-02" style="stop-color:#F7E5E3"/>
		<stop  offset="1" style="stop-color:#F7D6D2"/>
	</linearGradient>
	<path class="st55" d="M266.2,481.4h-2l-2.6-18.5c1.3,1.9,2.8,4.2,4.1,6.4l0,0L266.2,481.4z"/>
	<path class="st56" d="M278.8,242.2c12.5,37.5,8.9,113.7,8.9,113.7l-7.3,91h-19.5c-4.8-55,1.5-88,1.5-88l-7-60.4l-9.8,61.5l-16.2,87
		h-20c-0.6-14.7,3.2-51.3,10.9-89.8c-5.9-34-7.3-42.3-5-71.5s17-44,17-44L278.8,242.2z"/>
	<path class="st27" d="M266.3,229v-24.3l-13.5-38.1l-15.2-11.7c-50.4,21.7-57.1,79.7-57.1,79.7l17.8,33.4l12.9-11.7L203,234
		l19.4-32.5l7.4,25.3C241.8,228.4,254.2,229.8,266.3,229z"/>
	<path class="st27" d="M284.7,203.5l32,16l3.5-19c0,0-36.7-21.6-39.4-34.9c-14.5-9.7-18.1-12.6-18.1-12.6l-0.4,1.8l-1.6,8l5.5,41.8
		V229c3.9-0.2,7.8-0.7,11.6-1.4c0-3.4,0.2-6.3,0.9-7.6C280.8,216,284.7,203.5,284.7,203.5z"/>
	<path class="st34" d="M277.9,227.6c-3.8,0.7-7.7,1.2-11.6,1.4c-12.1,0.7-24.5-0.6-36.6-2.2l4.5,15.6l32.1,5.7l12.5-5.9
		C278.8,242.2,278,234.2,277.9,227.6z"/>
	<path class="st34" d="M397.7,193.5c-0.7-1.9-13.1,4.4-13.3,3c-0.1-0.8,11.7-5.1,11-6.5s-6.8,1.6-10.8,2.8s-8.6,1.1-9.9-0.4
		s8.1-5.6,5.8-8c-1.2-1.2-15.4,10.4-15.4,10.4c-1,0.9-1.8,2-2.4,3.1l-0.1-0.1c-6.7,4.8-42.8,5-42.8,5c-1.8,4.6-2.7,9.4-2.7,14.3
		c19.5,4.1,49.2-8.6,49.2-8.6l0,0c3.8,0.5,7.6,0.7,11.4,0.5c3.1-0.4,6.1-1.1,9-2c3.8-1.1,8.7-2.6,8-4s-6.9,1.7-7.4,0.9
		s11.1-4.4,10.5-6s-11.7,3.6-12,2.8S398.3,195.1,397.7,193.5z"/>
	<path class="st34" d="M209.4,258l4,7.4l13.8,8l-4.9,17.2c0,0-13.9-8.5-15.6-12s-1-5-1-5l-5.3-7.4L209.4,258z"/>
	
		<linearGradient id="SVGID_50_" gradientUnits="userSpaceOnUse" x1="253.4055" y1="370.3698" x2="254.4055" y2="364.2098" gradientTransform="matrix(1 0 0 1 0 -116)">
		<stop  offset="0" style="stop-color:#F7E5E3"/>
		<stop  offset="1" style="stop-color:#D4ACA7"/>
	</linearGradient>
	<path class="st57" d="M229.3,245.3c0,0,24.9,5.4,31.5,5.6c6.6,0.2,19.7-2.8,19.7-2.8l0.9,3.8c0,0-11,3.2-20,3.1
		c-8.6-0.1-34.7-6.1-34.7-6.1L229.3,245.3z"/>
	
		<linearGradient id="SVGID_51_" gradientUnits="userSpaceOnUse" x1="237.3588" y1="368.4258" x2="239.1888" y2="363.5958" gradientTransform="matrix(1 0 0 1 0 -116)">
		<stop  offset="5.000000e-02" style="stop-color:#F7E5E3"/>
		<stop  offset="1" style="stop-color:#F7D6D2"/>
	</linearGradient>
	<polygon class="st58" points="238.7,245.9 241,246.5 238.7,252.4 236.2,251.8 	"/>
	
		<linearGradient id="SVGID_52_" gradientUnits="userSpaceOnUse" x1="272.45" y1="367.65" x2="276.57" y2="367.65" gradientTransform="matrix(1 0 0 1 0 -116)">
		<stop  offset="5.000000e-02" style="stop-color:#F7E5E3"/>
		<stop  offset="1" style="stop-color:#F7D6D2"/>
	</linearGradient>
	<polygon class="st59" points="272.5,249.1 274.6,248.1 276.6,254.1 274.3,255.2 	"/>
	<polygon class="st27" points="237.6,154.9 229.5,154.9 230.2,164.7 242.7,169 241.6,176.6 266.3,204.7 252.8,166.6 	"/>
	
		<linearGradient id="SVGID_53_" gradientUnits="userSpaceOnUse" x1="220.4" y1="398.35" x2="231.82" y2="398.35" gradientTransform="matrix(1 0 0 1 0 -116)">
		<stop  offset="0" style="stop-color:#F7E5E3"/>
		<stop  offset="1" style="stop-color:#D4ACA7"/>
	</linearGradient>
	<polygon class="st60" points="228.9,267.1 220.4,297.1 222.7,298 231.8,266.7 	"/>
	
		<linearGradient id="SVGID_54_" gradientUnits="userSpaceOnUse" x1="251.15" y1="198.25" x2="267.3455" y2="198.25" gradientTransform="matrix(1 0 0 1 0 -116)">
		<stop  offset="0" style="stop-color:#363972"/>
		<stop  offset="0.37" style="stop-color:#3D417D"/>
		<stop  offset="1" style="stop-color:#464B8B"/>
	</linearGradient>
	<path class="st61" d="M264.7,91c0,0,2.1-8.8-11.1-17.5"/>
</g>
</svg>
